<svg width="36" height="36" viewBox="0 0 36 36" fill="none" xmlns="http://www.w3.org/2000/svg">
<path fill-rule="evenodd" clip-rule="evenodd" d="M18 36C27.9414 36 36 27.9411 36 18C36 8.0589 27.9414 0 18 0C8.05859 0 0 8.0589 0 18C0 27.9411 8.05859 36 18 36ZM20.1553 9.00421C19.5693 9.00513 18.9824 9.00598 18.3936 9.01501C18.3799 10.8813 18.3809 12.7477 18.3818 14.6158C18.3818 15.7656 18.3818 16.916 18.3789 18.0675C18.377 18.4237 18.3779 18.7794 18.3789 19.1349C18.3799 20.119 18.3818 21.1013 18.3262 22.0875C18.3203 22.3008 18.2354 22.4941 18.1348 22.6791C18.0977 22.7479 18.0576 22.8155 18.0186 22.8825C17.584 23.595 16.7812 24.0825 15.9414 24.09C14.6816 24.2025 13.4961 23.1675 13.3164 21.9375C13.3086 21.5325 13.2637 21.1125 13.4209 20.73C13.6084 20.1975 13.9688 19.725 14.4414 19.4175C15.0938 18.9675 15.9639 18.9 16.7061 19.14C16.7061 18.03 16.751 16.92 16.7363 15.81C15.1084 15.5025 13.3691 16.02 12.124 17.1C11.0293 18.03 10.3242 19.395 10.1885 20.82C10.1738 21.1875 10.1816 21.5625 10.1963 21.9375C10.3535 23.6925 11.4189 25.3275 12.9336 26.22C13.8486 26.76 14.9209 27.0525 15.9941 26.9925C17.7412 26.9625 19.4434 26.025 20.4268 24.585C21.0342 23.7225 21.3789 22.68 21.4385 21.63C21.4521 20.2704 21.4521 18.908 21.4512 17.5444C21.4512 16.719 21.4512 15.8932 21.4541 15.0675C21.8438 15.3225 22.2412 15.57 22.6689 15.765C23.6514 16.23 24.7393 16.455 25.8184 16.4925V13.47C24.6641 13.3425 23.4785 12.96 22.6387 12.1275C21.7988 11.3175 21.3867 10.1475 21.3262 9C20.9365 9.00299 20.5459 9.0036 20.1553 9.00421Z" fill="white"/>
</svg>
