<svg xmlns="http://www.w3.org/2000/svg" viewBox="0 0 467.7 135.68"><defs><style>.cls-1{fill:#13103d;}.cls-2{fill:#05046a;}.cls-3{fill:#5e85bc;}.cls-4{fill:#f2ae1c;}.cls-5{fill:#f27781;}</style></defs><g id="Layer_2" data-name="Layer 2"><g id="Layer_1-2" data-name="Layer 1"><path class="cls-1" d="M139.52,114.8c-1.34.75-1.67,2.08-2.34,3.14-6.6,10.34-16.13,15.63-28.26,16.32a49,49,0,0,1-15.19-1.59,25.62,25.62,0,0,1-15.22-10.9c-1.5-2.25-2.82-4.62-4.22-6.93a2.38,2.38,0,0,0-1.36,1.3c-2.46,5.1-6.59,8.56-11.35,11.35a48.59,48.59,0,0,1-15.68,5.69,61.28,61.28,0,0,1-22.87.15,32.59,32.59,0,0,1-8.61-2.83,23,23,0,0,1-10.15-9.84C1.48,115.48.53,109.83,0,104.08A1.76,1.76,0,0,1,1.54,102c3-.59,6-1.13,9-1.62a1.38,1.38,0,0,1,1.54.88c.36.89.68,1.79,1,2.68,2.26,5.64,6.49,8.87,12.35,10.25a49.62,49.62,0,0,0,16.21.67,45.91,45.91,0,0,0,16.55-4.48,21.69,21.69,0,0,0,8.1-6.56,9.92,9.92,0,0,0,1.79-8.92q-7-27.36-14.78-54.52c-.22-.76-.51-1.52-.69-2.29-.38-1.58-.17-2.06,1.24-2.55,3.61-1.27,7.23-2.53,10.86-3.74,2-.66,2.46-.39,3,1.76,2,8,4,16.1,6.07,24.14,3.15,12.21,6.36,24.4,9.55,36.6a49.81,49.81,0,0,0,4,10.74c3.24,6.08,8.18,9.61,15.16,10.23a47.46,47.46,0,0,0,10-.07A21.82,21.82,0,0,0,130,103.33a41.51,41.51,0,0,0,4.14-12.2c.76-4.08,1.35-8.19,2-12.29.14-.88.52-1.55,1.42-1.65A56.43,56.43,0,0,1,149,76.8c-.28,3.38-.68,6.55-.77,9.73a57.44,57.44,0,0,0,.34,8.6c.95,7.71,4.92,13.33,12,16.67,1.55-.89,2.13-2.46,3-3.77A174.24,174.24,0,0,1,187,79a99.37,99.37,0,0,1,20.85-16c8.2-4.6,16.88-7.51,26.36-7.83,20.63-.69,34.26,12.17,39.29,25.21,4,10.49,3.82,20.59-2.62,30.17a14.45,14.45,0,0,0-.81,1.52c.36,1.46,1.56,1.19,2.37,1.41a70.81,70.81,0,0,0,14.7,2,229.39,229.39,0,0,0,26.35-.55,17.35,17.35,0,0,0,1.9-.26c1-.19,1.3-1,.7-1.68s-1.53-1.63-2.26-2.48a37.48,37.48,0,0,1-9.17-19.17,36,36,0,0,1,2.9-20.57,41.43,41.43,0,0,1,20.52-21.24c9.66-4.61,18.62-3.34,26.77,3.48,7.57,6.32,11.74,14.59,13.4,24.2,2.21,12.82-1.27,24-9.72,33.78-.68.78-1.85,1.3-1.72,2.58.11.19.17.43.27.45,1.89.3,3.78.71,5.68.85,7,.49,14,.8,21.07.75,6.41-.05,11-2.87,14.06-8.33a66.55,66.55,0,0,0,4-9.2c1.81-4.77,3.67-9.52,5.7-14.21a54.07,54.07,0,0,1,6.6-11.08c8.87-11.73,24.72-11.95,34.37-5.26a36.61,36.61,0,0,1,9.65,9.89,56.74,56.74,0,0,1,9.48,30.22,27.58,27.58,0,0,1-3.46,14.75c-4.41,7.71-11.06,11.75-20,11.87a46.49,46.49,0,0,1-19-4.16,80.14,80.14,0,0,1-13.74-7.76c-1.29-.89-2.4-2.1-4.18-2.48-1.25,1-1.79,2.51-2.61,3.81a21.55,21.55,0,0,1-18.29,10.55c-16.12.7-31.91-.92-47.05-6.86a6.13,6.13,0,0,0-5-.06,99,99,0,0,1-38.87,7c-6.54-.11-13.09.2-19.61-.83-7.48-1.17-14.67-3.12-21.28-6.86a4.34,4.34,0,0,0-4.44-.29c-10.44,4.74-21.55,6.78-32.86,8.11a199.88,199.88,0,0,1-36.85.74,85.06,85.06,0,0,1-19.29-3.42c-8.57-2.63-15.52-7.36-20.25-15.11C140.49,116,140,115.4,139.52,114.8ZM197,117.41c12.35-.18,22.56-.63,32.68-2.29A76.08,76.08,0,0,0,251,108.38a34.07,34.07,0,0,0,7.57-5c4.47-4,5.5-8.78,3.66-14.34a20.12,20.12,0,0,0-2.56-5.12,25.73,25.73,0,0,0-10.52-8.85,36.83,36.83,0,0,0-23.85-2.53,55.24,55.24,0,0,0-17.91,7.79c-13.48,8.55-23.78,20.23-32.72,33.25-.86,1.24-.48,2.05,1,2.35C183.41,117.51,191.25,117.31,197,117.41Zm120.43-32a20.42,20.42,0,0,0,.65,5.2c1.59,6.25,5.57,10.66,10.77,14.12,2.9,1.94,5.89,3.78,9.37,4.55A30.39,30.39,0,0,0,348,103.4c.24-.2.47-.43.7-.65,11.68-11.11,7.59-29.46-3.21-36.85a14.36,14.36,0,0,0-12.76-2C323.84,66.53,317.37,75.58,317.39,85.39ZM444.28,116.2a37.3,37.3,0,0,0,3.82-.23c4-.62,6.2-3.07,6.5-7.08a17.74,17.74,0,0,0,0-3.34,34.35,34.35,0,0,0-11.47-22.46,22.8,22.8,0,0,0-2.74-1.92A13.7,13.7,0,0,0,423,83.79a31.29,31.29,0,0,0-3.75,5.53,87.78,87.78,0,0,0-4.58,11,2.89,2.89,0,0,0,1,3.73,58.35,58.35,0,0,0,19.23,10.41A32.23,32.23,0,0,0,444.28,116.2Z"/><path class="cls-2" d="M329.07,11.37a11,11,0,0,1-22.07.11C306.93,5.35,312.24-.08,318.27.2A10.92,10.92,0,0,1,329.07,11.37Z"/><path class="cls-3" d="M298.45,11.36a11,11,0,0,1-11.33,11.15,11.13,11.13,0,0,1-10.86-11.14,11.1,11.1,0,1,1,22.19,0Z"/><path class="cls-4" d="M359.87,11.09a11.09,11.09,0,0,1-22.18.14A11.28,11.28,0,0,1,349,.05,11.17,11.17,0,0,1,359.87,11.09Z"/><path class="cls-5" d="M380.68,22.11a10.52,10.52,0,0,1-11-10.8,11.14,11.14,0,1,1,22.28.21C392,17.49,386.87,22.14,380.68,22.11Z"/></g></g></svg>