<svg width="36" height="36" viewBox="0 0 36 36" fill="none" xmlns="http://www.w3.org/2000/svg">
<path fill-rule="evenodd" clip-rule="evenodd" d="M18 36C27.9411 36 36 27.9411 36 18C36 8.05887 27.9411 0 18 0C8.05887 0 0 8.05887 0 18C0 27.9411 8.05887 36 18 36ZM15.3301 18C15.3301 16.531 16.5289 15.3322 17.9979 15.3322C19.4668 15.3322 20.6656 16.531 20.6656 18C20.6656 19.469 19.4668 20.6678 17.9979 20.6678C16.5289 20.6678 15.3301 19.469 15.3301 18ZM25.9994 17.5959C25.9993 17.7304 25.9991 17.8651 25.9991 18C25.9991 18.1508 25.9993 18.3014 25.9996 18.4519C26.001 19.4037 26.0024 20.35 25.9471 21.3022C25.885 22.5831 25.5948 23.7179 24.6562 24.6565C23.7196 25.5931 22.5829 25.8853 21.302 25.9474C20.3339 26.0018 19.3719 26.0008 18.4039 25.9997C18.2694 25.9996 18.1347 25.9994 17.9999 25.9994C17.8653 25.9994 17.7309 25.9996 17.5965 25.9997C16.6298 26.0008 15.6676 26.0018 14.6977 25.9474C13.4168 25.8853 12.2821 25.5951 11.3435 24.6565C10.4069 23.7199 10.1147 22.5831 10.0526 21.3022C9.99816 20.334 9.99923 19.3705 10.0003 18.4034C10.0004 18.269 10.0006 18.1345 10.0006 18C10.0006 17.8654 10.0004 17.731 10.0003 17.5966C9.99923 16.6299 9.99816 15.6677 10.0526 14.6978C10.1147 13.4169 10.4049 12.2821 11.3435 11.3435C12.2801 10.4069 13.4168 10.1147 14.6977 10.0526C15.6658 9.99816 16.6278 9.99923 17.5957 10.0003C17.7303 10.0004 17.865 10.0006 17.9999 10.0006C18.1344 10.0006 18.2689 10.0004 18.4032 10.0003C19.3699 9.99923 20.3321 9.99816 21.302 10.0526C22.5829 10.1147 23.7176 10.4049 24.6562 11.3435C25.5928 12.2801 25.885 13.4169 25.9471 14.6978C26.0015 15.6659 26.0005 16.6279 25.9994 17.5959ZM13.8932 18C13.8932 20.2715 15.7264 22.1048 17.9979 22.1048C20.2693 22.1048 22.1025 20.2715 22.1025 18C22.1025 15.7285 20.2693 13.8952 17.9979 13.8952C15.7264 13.8952 13.8932 15.7285 13.8932 18ZM21.312 13.7271C21.312 14.2575 21.7403 14.6858 22.2707 14.6858C22.3966 14.6859 22.5213 14.6612 22.6377 14.6131C22.7541 14.565 22.8598 14.4944 22.9489 14.4053C23.0379 14.3163 23.1085 14.2105 23.1566 14.0942C23.2048 13.9778 23.2294 13.853 23.2293 13.7271C23.2293 13.1968 22.801 12.7685 22.2707 12.7685C21.7403 12.7685 21.312 13.1968 21.312 13.7271Z" fill="white"/>
</svg>
