<svg width="36" height="36" viewBox="0 0 36 36" fill="none" xmlns="http://www.w3.org/2000/svg">
<path fill-rule="evenodd" clip-rule="evenodd" d="M18 36C27.9414 36 36 27.9411 36 18C36 8.0589 27.9414 0 18 0C8.05859 0 0 8.0589 0 18C0 27.9411 8.05859 36 18 36ZM18.8574 14.7267H16.0713V24.5H19.0713V19.7653C19.0713 18.179 19.6602 17.1702 21.0771 17.1702C22.0986 17.1702 22.5 18.1063 22.5 19.766V24.5H25.5V19.1022C25.5 16.1877 24.7969 14.5992 21.833 14.5992C20.2871 14.5992 19.2588 15.3162 18.8574 16.1143V14.7267ZM13.9277 14.5992V24.3725H10.9277V14.5992H13.9277ZM14.2109 12.145C14.3076 11.9129 14.3574 11.6639 14.3574 11.4125C14.3574 10.9047 14.1543 10.4188 13.793 10.0602C13.4307 9.70172 12.9395 9.5 12.4287 9.5C11.918 9.49976 11.4277 9.70111 11.0645 10.0602C10.7021 10.4188 10.5 10.9047 10.5 11.4125C10.5 11.6639 10.5508 11.9128 10.6475 12.1448C10.7441 12.3769 10.8857 12.5875 11.0645 12.7648C11.4268 13.1234 11.917 13.3246 12.4277 13.325C12.9385 13.3262 13.4297 13.1245 13.793 12.764C13.9717 12.5874 14.1133 12.377 14.2109 12.145Z" fill="white"/>
</svg>
