<svg width="15" height="15" viewBox="0 0 15 15" fill="none" xmlns="http://www.w3.org/2000/svg">
<path d="M7.46015 13.6769H1.86502C1.52185 13.6769 1.24336 13.3984 1.24336 13.0553V1.86505C1.24336 1.52188 1.52188 1.24339 1.86502 1.24339H7.46015C7.80393 1.24339 8.08181 0.965506 8.08181 0.621723C8.08181 0.277939 7.80393 0 7.46015 0H1.86502C0.83677 0 0 0.8368 0 1.86505V13.0552C0 14.0835 0.83677 14.9203 1.86502 14.9203H7.46015C7.80393 14.9203 8.08181 14.6424 8.08181 14.2986C8.08181 13.9548 7.80393 13.6769 7.46015 13.6769Z" fill="#B6B6B6"/>
<path d="M14.7849 7.0172L11.0051 3.28713C10.7614 3.04592 10.3673 3.04904 10.1261 3.29336C9.88488 3.53767 9.88736 3.93119 10.1323 4.17241L12.8335 6.83815H5.5953C5.25151 6.83815 4.97363 7.11603 4.97363 7.45981C4.97363 7.8036 5.25151 8.08151 5.5953 8.08151H12.8335L10.1323 10.7472C9.88739 10.9885 9.88552 11.382 10.1261 11.6263C10.2479 11.7494 10.4083 11.8116 10.5687 11.8116C10.7266 11.8116 10.8845 11.7519 11.0051 11.6325L14.7849 7.90242C14.9031 7.78556 14.9702 7.62638 14.9702 7.45978C14.9702 7.29324 14.9037 7.13471 14.7849 7.0172Z" fill="#B6B6B6"/>
</svg>
