<svg width="31" height="32" viewBox="0 0 31 32" fill="none" xmlns="http://www.w3.org/2000/svg">
<path d="M15.1586 28.4384C7.45828 28.4384 1.1554 22.3779 0.770386 14.7631C1.1554 7.14836 7.45828 1.08789 15.1586 1.08789C22.859 1.08789 29.1619 7.14836 29.5469 14.7631C29.1619 22.3779 22.859 28.4384 15.1586 28.4384Z" fill="#E27E3A"/>
<path d="M15.1587 31.4914C6.945 31.4914 0.271362 24.8177 0.271362 16.604C0.271362 16.3473 0.271376 16.0907 0.285636 15.834C0.684914 23.6912 7.20168 29.9513 15.1587 29.9513C23.1157 29.9513 29.6325 23.6912 30.0318 15.834C30.0318 16.0907 30.0461 16.3473 30.0461 16.604C30.0461 24.8177 23.3724 31.4914 15.1587 31.4914Z" fill="#E27E3A"/>
<path d="M19.1087 29.4228C20.6488 28.9951 22.1033 28.3249 23.4009 27.455C23.7289 27.2411 24.0426 27.0129 24.3564 26.7705C26.5666 25.0308 28.2778 22.6779 29.219 19.9685C29.6753 18.6566 29.9605 17.2734 30.0318 15.8332C30.0318 15.5765 30.0461 15.3198 30.0461 15.0631C30.0461 6.84942 23.3724 0.175781 15.1587 0.175781C12.0928 0.175781 9.22661 1.11693 6.85946 2.71404C4.52084 4.29689 2.63853 6.52144 1.512 9.14527C1.35514 9.50176 1.21254 9.87252 1.0842 10.2433C0.585099 11.712 0.299904 13.2806 0.285645 14.9063C0.285645 14.9633 0.285645 15.0204 0.285645 15.0774C0.285645 15.3341 0.285637 15.5907 0.299897 15.8474C0.699174 23.7046 7.21594 29.9647 15.173 29.9647C16.5419 29.9647 17.8538 29.7794 19.1087 29.4371V29.4228ZM3.13763 17.1023C3.06633 16.6887 3.02354 16.261 2.99502 15.8332C2.98076 15.5765 2.96649 15.3198 2.96649 15.0631C2.96649 14.0079 3.1091 12.9669 3.35152 11.9972C3.45134 11.6122 3.57967 11.2272 3.70801 10.8422C4.70621 8.13282 6.64556 5.87975 9.12678 4.46802C10.9093 3.45556 12.9627 2.8709 15.1587 2.8709C21.8894 2.8709 27.3509 8.34671 27.3509 15.0631C27.3509 15.3198 27.3509 15.5765 27.3224 15.8332C27.2654 16.646 27.137 17.4445 26.9374 18.2146C26.1816 21.0238 24.4562 23.4337 22.1318 25.0593C21.8038 25.2875 21.4616 25.5014 21.1051 25.701C19.6363 26.5281 17.9822 27.0557 16.2282 27.2126C15.8717 27.2411 15.5152 27.2554 15.1587 27.2554C9.12678 27.2554 4.1073 22.849 3.13763 17.1023Z" fill="#F0C069"/>
<path d="M15.1588 27.2552C8.64201 27.2552 3.30881 22.1216 2.98083 15.6904C3.30881 9.2449 8.64201 4.11133 15.1588 4.11133C21.6756 4.11133 27.0088 9.2449 27.3367 15.6761C27.0088 22.1216 21.6756 27.2552 15.1588 27.2552Z" fill="#E3AD43"/>
<path d="M3.72223 10.8416L1.51196 9.13043C2.65276 6.52087 4.5208 4.28207 6.85943 2.69922L9.141 4.45318C6.65978 5.86491 4.73468 8.11798 3.72223 10.8274V10.8416Z" fill="#F4C985"/>
<path d="M24.3562 26.7727L22.1459 25.0616C24.4702 23.4359 26.1957 21.026 26.9515 18.2168L29.2331 19.9708C28.2919 22.6802 26.5807 25.033 24.3704 26.7727H24.3562Z" fill="#F4C985"/>
<path d="M3.13762 17.1037L0.271362 14.8935C0.285622 13.2678 0.570817 11.6992 1.06991 10.2305L3.35151 11.9844C3.09483 12.9684 2.96648 13.9951 2.96648 15.0503C2.96648 15.307 2.96649 15.5637 2.99501 15.8204C3.02353 16.2481 3.06632 16.6759 3.13762 17.0895V17.1037Z" fill="#F4C985"/>
<path d="M19.1086 29.423L16.2423 27.2127C17.9963 27.0559 19.6647 26.5282 21.1192 25.7012L23.4008 27.4552C22.1031 28.325 20.6486 28.9952 19.1086 29.423Z" fill="#F4C985"/>
<path d="M22.916 15.2461L23.2298 15.7309L23.0444 15.788L22.8447 15.3031L22.916 15.2461Z" fill="#E27E3A"/>
<path d="M18.524 21.5357C18.2815 21.5357 17.7254 21.3789 16.8555 21.0652C15.9714 20.7372 15.5008 20.509 15.4438 20.3522C15.401 20.2381 15.3868 20.067 15.3725 19.8246C15.3725 19.7247 15.3725 19.6249 15.3725 19.4966C15.3725 19.0117 15.401 18.2988 15.4581 17.3433C15.5151 16.3879 15.5436 15.6749 15.5436 15.1901C15.5436 14.1634 15.4153 13.6072 15.1871 13.5217C15.1871 13.5217 15.1871 13.5217 15.1729 13.5217C15.0588 13.4932 14.303 13.6358 12.8913 13.9495C11.3227 14.3202 10.2532 14.5199 9.66854 14.5484C8.65608 14.5912 7.70067 14.4771 6.81656 14.1919C6.2319 14.0065 5.90394 13.8354 5.83264 13.7071L5.53317 12.9798V12.937H5.51892C5.633 12.9655 8.28533 13.4789 8.95554 13.3933C10.5241 13.1794 12.3352 12.8229 14.3601 12.2953C14.4884 12.2668 14.6453 12.2383 14.8021 12.2383C15.344 12.2383 16 12.3951 16.77 12.7231C17.0409 12.8372 17.2548 12.4807 17.4402 12.609C17.6256 12.7231 17.7682 12.937 17.8965 13.1652C18.0534 13.4646 18.1674 13.7926 18.2245 13.9637C18.2815 14.1348 18.2958 14.8336 18.2958 16.0885V16.7587C18.2958 16.9155 18.2958 17.0581 18.2958 17.1865C18.31 17.6998 18.3671 17.9565 18.4526 17.9565C18.7093 17.9565 19.1514 17.6713 19.8216 17.1152C20.4776 16.5448 20.8198 16.1455 20.8198 15.8888C20.8341 15.5323 20.72 15.1188 20.449 14.6197C20.3635 14.306 20.2066 13.9495 19.9499 13.5645C19.5934 12.9941 19.3938 12.6803 19.351 12.609C19.351 12.609 19.351 12.609 19.351 12.5948C19.351 12.552 19.351 12.5235 19.3796 12.495C19.3938 12.4807 19.4223 12.4664 19.4508 12.4664C19.4508 12.4664 19.4651 12.4664 19.4794 12.4664C19.7931 12.5235 21.0337 13.5074 22.6023 14.7338C22.7164 14.8193 22.8162 14.9191 22.916 15.0332C23.3581 15.5751 23.5719 16.3451 23.5719 16.9583C23.5719 17.4432 23.4294 17.8282 23.1299 18.1276C22.916 18.3415 22.3171 18.7408 21.3046 19.2969L19.5221 20.2951C19.1229 20.5518 18.8519 20.837 18.6951 21.1365C18.6523 21.2648 18.581 21.4074 18.524 21.5785V21.5357Z" fill="#E27E3A"/>
<path d="M17.7681 13.1387L18.1389 13.7376L17.8251 13.8089L17.5685 13.21L17.7681 13.1387Z" fill="#E27E3A"/>
<path d="M15.4724 20.3814L15.1444 19.6113L15.8717 19.8965V20.4669L15.4724 20.3814Z" fill="#E27E3A"/>
<path d="M18.3814 20.3513C18.4955 20.1374 18.6524 19.952 18.8663 19.7524C18.9661 19.6668 19.0802 19.5813 19.2085 19.4957L20.991 18.4975C21.3618 18.2836 21.6755 18.0982 21.9464 17.9414C22.4027 17.6704 22.6879 17.4565 22.8163 17.3282C23.1157 17.0287 23.2583 16.6437 23.2583 16.1589C23.2583 15.7168 23.1442 15.3318 22.9161 14.9753C22.7592 14.7329 22.5453 14.5047 22.2744 14.3051C20.7058 13.0788 19.7789 12.4513 19.4794 12.4085C19.4794 12.4085 19.4652 12.4085 19.4509 12.4085C19.4224 12.4085 19.3939 12.4085 19.3796 12.4371C19.3654 12.4513 19.3511 12.4941 19.3511 12.5369C19.3511 12.5369 19.3511 12.5369 19.3511 12.5511C19.3939 12.6224 19.5793 12.9504 19.95 13.5065C20.2067 13.8916 20.3636 14.2481 20.4491 14.5618C20.4919 14.7472 20.5204 14.9183 20.5062 15.0894C20.5062 15.3176 20.2067 15.6883 19.6363 16.2017C19.5935 16.2444 19.5508 16.273 19.508 16.3157C18.9661 16.7863 18.5525 17.0573 18.2959 17.1428C18.2388 17.1571 18.1961 17.1713 18.139 17.1713C18.0249 17.1713 17.9679 16.7721 17.9679 15.9735V14.9611C17.9679 13.9201 17.9394 13.3354 17.8966 13.1786C17.8966 13.1643 17.8966 13.1358 17.8823 13.1215C17.7112 12.6652 17.2264 12.2659 16.4421 11.938C15.672 11.61 15.0161 11.4531 14.4742 11.4531C14.3174 11.4531 14.1605 11.4674 14.0322 11.4959C13.8753 11.5387 13.7042 11.5815 13.5473 11.6242C11.9645 12.0235 10.5385 12.3087 9.25509 12.5084C9.0412 12.5369 8.8273 12.5797 8.6134 12.6082C7.92893 12.6937 7.20166 12.765 6.41736 12.7935C5.81845 12.8078 5.50474 12.8363 5.49048 12.8649C5.49048 12.8649 5.49048 12.8791 5.49048 12.8934V12.9362C5.5903 13.0645 5.91829 13.2213 6.50294 13.421C7.38706 13.7062 8.34247 13.8345 9.35492 13.7775C9.65438 13.7632 10.1107 13.6919 10.6811 13.5921C11.1944 13.4923 11.8361 13.364 12.5634 13.1786C13.9609 12.8649 14.7309 12.7223 14.845 12.7508C15.0018 12.7936 15.1159 13.036 15.1729 13.5065C15.2015 13.7632 15.2157 14.0769 15.2157 14.4477C15.2157 14.9325 15.1872 15.6455 15.1302 16.601C15.1302 16.715 15.1159 16.8291 15.1017 16.9432C15.0589 17.7275 15.0304 18.3407 15.0304 18.7542C15.0304 19.1677 15.0589 19.4672 15.1017 19.6098C15.1159 19.6668 15.2015 19.7381 15.3441 19.8237C15.5722 19.952 15.9572 20.1232 16.5134 20.3228C17.3832 20.6365 17.9394 20.7934 18.1818 20.7934C18.2531 20.6365 18.3101 20.4939 18.3529 20.3513H18.3814Z" fill="#F0C069"/>
<path d="M18.8805 19.7655L15.1301 16.9277C15.1301 16.8137 15.1444 16.6996 15.1586 16.5855C15.2157 15.6301 15.2442 14.9028 15.2442 14.4323C15.2442 13.377 15.1159 12.8209 14.8734 12.7496C14.7594 12.7211 13.9893 12.8637 12.5918 13.1774C11.8503 13.3485 11.2229 13.4911 10.7096 13.5909L9.26929 12.5072C10.5527 12.3075 11.9787 12.0223 13.5615 11.623L17.9821 14.9599C17.9821 15.074 17.9821 15.188 17.9821 15.3021V15.9723C17.9821 16.7709 18.0391 17.1702 18.139 17.1702C18.3956 17.1702 18.852 16.885 19.5079 16.3146C19.5507 16.2718 19.5935 16.2433 19.6362 16.2005L21.9463 17.9545C21.6897 18.1113 21.3617 18.2967 20.9909 18.5106L19.2084 19.5088C19.0801 19.5943 18.966 19.6799 18.8662 19.7655H18.8805Z" fill="#F4C985"/>
</svg>
