<svg width="235" height="128" viewBox="0 0 235 128" fill="none" xmlns="http://www.w3.org/2000/svg">
<path d="M177.569 89.25C173.609 100.51 166.254 110.264 156.518 117.168C146.782 124.072 135.144 127.787 123.209 127.8C122.209 127.8 121.209 127.8 120.209 127.73C119.209 127.73 118.209 127.8 117.209 127.8H116.539C110.42 127.736 104.352 126.686 98.5687 124.69C97.1187 124.2 95.7087 123.69 94.3087 123.04C84.2253 118.634 75.6056 111.447 69.4587 102.32C66.7183 98.2661 64.5102 93.8768 62.8887 89.26L177.569 89.25Z" fill="#F0EFEF"/>
<path d="M229.219 39.1699L221.459 48.6799L228.629 51.6099L234.629 40.9199L229.219 39.1699Z" fill="#E7B140"/>
<path d="M58.0277 5.94L47.2877 0L45.6777 7.58L57.2577 11.58L58.0277 5.94Z" fill="#90BF74"/>
<path d="M210.568 11.0991C210.568 11.0991 214.078 19.5891 212.468 25.1491L219.318 21.3391C219.318 21.3391 218.618 8.89906 216.858 7.28906L210.568 11.0991Z" fill="#D55570"/>
<path d="M196.209 67.8999L201.039 66.4399L201.919 73.6099L208.509 70.0199L210.259 74.7799L216.839 71.2699L212.459 62.1899L206.529 64.3899L205.289 58.1699L194.459 61.3099L196.209 67.8999Z" fill="#6684BA"/>
<path d="M197.26 26.7025L191.389 23.3125L187.999 29.1842L193.87 32.5742L197.26 26.7025Z" fill="#90BF74"/>
<path d="M9.2623 45.3197L3.39062 41.9297L0.00062561 47.8013L5.8723 51.1914L9.2623 45.3197Z" fill="#E7B140"/>
<path d="M32.1884 64.2305C32.1884 64.2305 34.3283 70.4805 43.4883 72.0005L40.5684 77.6905C40.5684 77.6905 30.3984 75.2805 28.5684 70.0905L32.1884 64.2305Z" fill="#D55570"/>
<path d="M37.8576 40.9905C40.3926 40.9905 42.4476 38.9355 42.4476 36.4005C42.4476 33.8656 40.3926 31.8105 37.8576 31.8105C35.3226 31.8105 33.2676 33.8656 33.2676 36.4005C33.2676 38.9355 35.3226 40.9905 37.8576 40.9905Z" fill="#6684BA"/>
<path d="M168.332 63.6205C168.316 77.9025 162.825 91.6348 152.99 101.991C143.155 112.347 129.724 118.538 115.462 119.29C101.263 118.461 87.9188 112.235 78.1597 101.889C68.4006 91.543 62.9648 77.8581 62.9648 63.6355C62.9648 49.4128 68.4006 35.7279 78.1597 25.3817C87.9188 15.0355 101.263 8.81041 115.462 7.98047C129.718 8.73491 143.143 14.9229 152.977 25.2719C162.811 35.6209 168.306 49.3444 168.332 63.6205Z" fill="#F9781D"/>
<path d="M180.163 63.61C180.147 78.8852 174.072 93.5303 163.272 104.332C152.472 115.135 137.828 121.211 122.553 121.23C121.553 121.23 120.553 121.23 119.553 121.16C134.289 120.383 148.165 113.981 158.32 103.276C168.476 92.5703 174.137 78.3763 174.137 63.62C174.137 48.8637 168.476 34.6697 158.32 23.9641C148.165 13.2586 134.289 6.85734 119.553 6.08002C120.553 6.03002 121.553 6 122.553 6C137.826 6.01852 152.469 12.0941 163.269 22.8941C174.069 33.694 180.144 48.3366 180.163 63.61Z" fill="#F9781D"/>
<path d="M172.182 48.37C170.556 42.4585 167.99 36.8468 164.582 31.75C163.742 30.48 162.852 29.24 161.912 28.05C155.112 19.3936 145.98 12.8604 135.592 9.22C130.437 7.41118 125.048 6.35369 119.592 6.08002C118.592 6.03002 117.592 6 116.592 6C103.35 6.00648 90.5147 10.5736 80.2451 18.933C69.9756 27.2924 62.8985 38.9339 60.2049 51.8988C57.5112 64.8636 59.3652 78.3607 65.455 90.119C71.5448 101.877 81.4986 111.179 93.6419 116.46C95.0319 117.07 96.4519 117.62 97.8919 118.11C103.686 120.108 109.764 121.158 115.892 121.22H116.562C117.562 121.22 118.562 121.22 119.562 121.15C128.163 120.696 136.553 118.321 144.116 114.2C151.679 110.078 158.223 104.315 163.267 97.3336C168.311 90.3521 171.727 82.3294 173.265 73.8547C174.802 65.38 174.422 56.6685 172.152 48.36L172.182 48.37ZM124.462 110.14C122.833 110.417 121.191 110.607 119.542 110.71C118.542 110.77 117.542 110.8 116.542 110.8C112.53 110.805 108.535 110.298 104.652 109.29C103.142 108.89 101.652 108.42 100.202 107.89C89.8137 104.003 81.1116 96.6063 75.6019 86.98C71.5195 79.8043 69.3915 71.6829 69.4305 63.4273C69.4695 55.1716 71.6741 47.0708 75.824 39.9339C79.9739 32.797 85.9239 26.874 93.0796 22.7566C100.235 18.6391 108.346 16.4714 116.602 16.47C117.602 16.47 118.602 16.47 119.602 16.56C122.715 16.7531 125.8 17.259 128.812 18.07C139.557 20.9564 148.94 27.5389 155.312 36.66C156.21 37.9477 157.038 39.283 157.792 40.66C161.067 46.4673 163.062 52.9081 163.642 59.55C163.762 60.91 163.822 62.3 163.822 63.7C163.787 74.8383 159.819 85.6063 152.617 94.1034C145.416 102.6 135.444 108.28 124.462 110.14Z" fill="#F9BE58"/>
<path d="M163.802 63.6102C163.788 75.7013 159.14 87.3269 150.813 96.0941C142.487 104.861 131.116 110.103 119.042 110.74C106.972 110.106 95.6051 104.865 87.2856 96.0964C78.9661 87.3283 74.3281 75.7022 74.3281 63.6152C74.3281 51.5283 78.9661 39.9021 87.2856 31.134C95.6051 22.3659 106.972 17.1244 119.042 16.4902C131.116 17.1249 142.486 22.3644 150.813 31.1301C159.139 39.8957 163.788 51.5202 163.802 63.6102Z" fill="#F0AC1C"/>
<path d="M100.283 107.889L93.6725 116.459C83.5846 112.057 74.9609 104.869 68.8125 95.7394L75.6025 86.9395C81.125 96.595 89.8583 104.008 100.283 107.889Z" fill="#FFC97B"/>
<path d="M161.911 28.0507L155.291 36.6207C148.92 27.4996 139.536 20.9171 128.791 18.0307L135.591 9.2207C145.979 12.8611 155.111 19.3943 161.911 28.0507Z" fill="#FFC97B"/>
<path d="M124.462 110.139L115.912 121.219C109.784 121.157 103.706 120.107 97.9121 118.109L104.722 109.289C108.605 110.297 112.601 110.804 116.612 110.799C117.612 110.799 118.612 110.799 119.612 110.709C121.238 110.603 122.856 110.413 124.462 110.139Z" fill="#FFC97B"/>
<path d="M172.181 48.37L163.621 59.46C163.041 52.8181 161.047 46.3773 157.771 40.57L164.581 31.75C167.989 36.8468 170.555 42.4584 172.181 48.37Z" fill="#FFC97B"/>
<path d="M94.6429 60.2702C96.3992 60.2702 97.8229 58.8464 97.8229 57.0902C97.8229 55.3339 96.3992 53.9102 94.6429 53.9102C92.8866 53.9102 91.4629 55.3339 91.4629 57.0902C91.4629 58.8464 92.8866 60.2702 94.6429 60.2702Z" fill="#27235E"/>
<path d="M138.582 60.2702C140.339 60.2702 141.762 58.8464 141.762 57.0902C141.762 55.3339 140.339 53.9102 138.582 53.9102C136.826 53.9102 135.402 55.3339 135.402 57.0902C135.402 58.8464 136.826 60.2702 138.582 60.2702Z" fill="#27235E"/>
<path d="M130.273 64.41C130.257 67.6174 129.047 70.704 126.88 73.0684C124.712 75.4328 121.743 76.9058 118.549 77.2003C115.355 77.4949 112.166 76.5899 109.602 74.6618C107.039 72.7337 105.285 69.9204 104.683 66.77C104.537 66.0053 104.463 65.2285 104.463 64.45C104.463 63.9001 104.681 63.3726 105.069 62.9828C105.456 62.593 105.983 62.3727 106.533 62.3701H128.213C128.484 62.3619 128.754 62.4089 129.006 62.5082C129.258 62.6076 129.488 62.7572 129.681 62.9481C129.873 63.1389 130.025 63.3668 130.127 63.6182C130.229 63.8695 130.278 64.1389 130.273 64.41Z" fill="#27235E"/>
<path d="M140.902 67.2405C143.934 67.2405 146.392 66.4168 146.392 65.4005C146.392 64.3843 143.934 63.5605 140.902 63.5605C137.87 63.5605 135.412 64.3843 135.412 65.4005C135.412 66.4168 137.87 67.2405 140.902 67.2405Z" fill="#D65671"/>
<path d="M92.3318 67.2405C95.3638 67.2405 97.8218 66.4168 97.8218 65.4005C97.8218 64.3843 95.3638 63.5605 92.3318 63.5605C89.2998 63.5605 86.8418 64.3843 86.8418 65.4005C86.8418 66.4168 89.2998 67.2405 92.3318 67.2405Z" fill="#D65671"/>
<path d="M126.801 73.2299C125.598 74.5281 124.139 75.5639 122.516 76.2722C120.893 76.9804 119.142 77.346 117.371 77.346C115.601 77.346 113.849 76.9804 112.227 76.2722C110.604 75.5639 109.145 74.5281 107.941 73.2299C108.739 71.3918 110.057 69.8269 111.732 68.7277C113.408 67.6285 115.368 67.043 117.371 67.043C119.375 67.043 121.335 67.6285 123.011 68.7277C124.686 69.8269 126.004 71.3918 126.801 73.2299Z" fill="#D55771"/>
<path d="M155.31 4C155.31 4 156.65 19.23 136 26.08C136 26.08 153 31.08 155.33 48.15C155.33 48.15 158.53 30.67 179.22 26.08C179.22 26.08 155.77 23.78 155.31 4Z" fill="white"/>
</svg>
