<svg width="122" height="122" viewBox="0 0 122 122" fill="none" xmlns="http://www.w3.org/2000/svg">
<path d="M118.569 83.25C114.609 94.5096 107.254 104.264 97.518 111.168C87.7821 118.072 76.1443 121.787 64.2087 121.8C63.2087 121.8 62.2087 121.8 61.2087 121.73C60.2087 121.73 59.2087 121.8 58.2087 121.8H57.5386C51.4204 121.736 45.3525 120.686 39.5687 118.69C38.1187 118.2 36.7087 117.69 35.3087 117.04C25.2253 112.634 16.6056 105.447 10.4587 96.32C7.71832 92.2661 5.51023 87.8768 3.88867 83.26L118.569 83.25Z" fill="#F0EFEF"/>
<path d="M109.332 57.6205C109.316 71.9025 103.825 85.6348 93.9899 95.9908C84.1548 106.347 70.7238 112.538 56.4616 113.29C42.2632 112.461 28.9188 106.235 19.1597 95.8892C9.40064 85.543 3.96484 71.8581 3.96484 57.6355C3.96484 43.4128 9.40064 29.7279 19.1597 19.3817C28.9188 9.03551 42.2632 2.81041 56.4616 1.98047C70.7177 2.73491 84.143 8.92288 93.9768 19.2719C103.811 29.6209 109.306 43.3444 109.332 57.6205Z" fill="#F9781D"/>
<path d="M121.163 57.61C121.147 72.8852 115.072 87.5303 104.272 98.3324C93.472 109.135 78.8279 115.211 63.5527 115.23C62.5527 115.23 61.5527 115.23 60.5527 115.16C75.2886 114.383 89.1646 107.981 99.3203 97.2758C109.476 86.5703 115.137 72.3763 115.137 57.62C115.137 42.8637 109.476 28.6697 99.3203 17.9641C89.1646 7.25855 75.2886 0.857338 60.5527 0.0800171C61.5527 0.0300171 62.5527 0 63.5527 0C78.8262 0.0185245 93.4687 6.09412 104.269 16.8941C115.069 27.694 121.144 42.3366 121.163 57.61Z" fill="#F9781D"/>
<path d="M113.182 42.37C111.556 36.4585 108.99 30.8468 105.582 25.75C104.742 24.48 103.852 23.24 102.912 22.05C96.1121 13.3936 86.9803 6.86043 76.5919 3.22C71.4368 1.41118 66.0482 0.353689 60.5919 0.0800171C59.5919 0.0300171 58.5919 0 57.5919 0C44.3501 0.00648266 31.5147 4.57362 21.2451 12.933C10.9756 21.2924 3.89854 32.9339 1.20486 45.8988C-1.48882 58.8636 0.365208 72.3607 6.45498 84.119C12.5448 95.8773 22.4986 105.179 34.6419 110.46C36.0319 111.07 37.4519 111.62 38.8919 112.11C44.6857 114.108 50.7637 115.158 56.8919 115.22H57.5619C58.5619 115.22 59.5619 115.22 60.5619 115.15C69.1629 114.696 77.5531 112.321 85.1161 108.2C92.6791 104.078 99.223 98.3152 104.267 91.3336C109.311 84.3521 112.727 76.3294 114.265 67.8547C115.802 59.38 115.422 50.6685 113.152 42.36L113.182 42.37ZM65.4619 104.14C63.8331 104.417 62.1908 104.607 60.5419 104.71C59.5419 104.77 58.5419 104.8 57.5419 104.8C53.5304 104.805 49.5347 104.298 45.6519 103.29C44.1419 102.89 42.6519 102.42 41.2019 101.89C30.8137 98.0031 22.1116 90.6063 16.6019 80.98C12.5195 73.8043 10.3915 65.6829 10.4305 57.4273C10.4695 49.1716 12.6741 41.0708 16.824 33.9339C20.9739 26.797 26.9239 20.874 34.0796 16.7566C41.2353 12.6391 49.3462 10.4714 57.6019 10.47C58.6019 10.47 59.6019 10.47 60.6019 10.56C63.7148 10.7531 66.8003 11.259 69.8119 12.07C80.557 14.9564 89.9404 21.5389 96.3119 30.66C97.2099 31.9477 98.0378 33.283 98.7919 34.66C102.067 40.4673 104.062 46.9081 104.642 53.55C104.762 54.91 104.822 56.3 104.822 57.7C104.787 68.8383 100.819 79.6063 93.6174 88.1034C86.4158 96.6004 76.4439 102.28 65.4619 104.14Z" fill="#F9BE58"/>
<path d="M104.802 57.6102C104.788 69.7013 100.14 81.3269 91.8133 90.0941C83.4869 98.8614 72.1164 104.103 60.0422 104.74C47.9719 104.106 36.6051 98.8645 28.2856 90.0964C19.9661 81.3283 15.3281 69.7022 15.3281 57.6152C15.3281 45.5283 19.9661 33.9021 28.2856 25.134C36.6051 16.3659 47.9719 11.1244 60.0422 10.4902C72.1155 11.1249 83.486 16.3644 91.8126 25.1301C100.139 33.8957 104.788 45.5202 104.802 57.6102Z" fill="#F0AC1C"/>
<path d="M41.2825 101.889L34.6725 110.459C24.5846 106.057 15.9609 98.869 9.8125 89.7394L16.6025 80.9395C22.125 90.595 30.8583 98.0084 41.2825 101.889Z" fill="#FFC97B"/>
<path d="M102.911 22.0507L96.291 30.6207C89.9196 21.4996 80.5362 14.9171 69.791 12.0307L76.591 3.2207C86.9794 6.86113 96.1112 13.3943 102.911 22.0507Z" fill="#FFC97B"/>
<path d="M65.4621 104.139L56.9121 115.219C50.7839 115.157 44.7059 114.107 38.9121 112.109L45.7221 103.289C49.6049 104.297 53.6006 104.804 57.6121 104.799C58.6121 104.799 59.6121 104.799 60.6121 104.709C62.2376 104.603 63.8564 104.413 65.4621 104.139Z" fill="#FFC97B"/>
<path d="M113.181 42.37L104.621 53.46C104.041 46.8181 102.047 40.3773 98.7715 34.57L105.581 25.75C108.989 30.8468 111.555 36.4584 113.181 42.37Z" fill="#FFC97B"/>
<path d="M35.6429 54.2702C37.3992 54.2702 38.8229 52.8464 38.8229 51.0902C38.8229 49.3339 37.3992 47.9102 35.6429 47.9102C33.8866 47.9102 32.4629 49.3339 32.4629 51.0902C32.4629 52.8464 33.8866 54.2702 35.6429 54.2702Z" fill="#27235E"/>
<path d="M79.5823 54.2702C81.3386 54.2702 82.7623 52.8464 82.7623 51.0902C82.7623 49.3339 81.3386 47.9102 79.5823 47.9102C77.8261 47.9102 76.4023 49.3339 76.4023 51.0902C76.4023 52.8464 77.8261 54.2702 79.5823 54.2702Z" fill="#27235E"/>
<path d="M81.9021 61.2405C84.9342 61.2405 87.3921 60.4168 87.3921 59.4005C87.3921 58.3843 84.9342 57.5605 81.9021 57.5605C78.8701 57.5605 76.4121 58.3843 76.4121 59.4005C76.4121 60.4168 78.8701 61.2405 81.9021 61.2405Z" fill="#D65671"/>
<path d="M33.3318 61.2405C36.3638 61.2405 38.8218 60.4168 38.8218 59.4005C38.8218 58.3843 36.3638 57.5605 33.3318 57.5605C30.2998 57.5605 27.8418 58.3843 27.8418 59.4005C27.8418 60.4168 30.2998 61.2405 33.3318 61.2405Z" fill="#D65671"/>
<path d="M52 64C52.9333 62.6667 55.64 60 59 60C62.36 60 65.0667 62.6667 66 64" stroke="#05046A" stroke-width="3" stroke-linecap="round"/>
</svg>
