<svg width="132" height="101" viewBox="0 0 132 101" fill="none" xmlns="http://www.w3.org/2000/svg">
<path d="M131.291 49.7528L10.1816 100.532C3.62202 84.9035 0 67.7488 0 49.7528C0 31.7568 3.46516 15.3437 9.76804 0L131.305 49.7528H131.291Z" fill="#6683B7"/>
<g style="mix-blend-mode:multiply" opacity="0.8">
<path d="M23.6496 71.924C22.613 71.8722 21.8147 71.5094 21.2549 70.8355C20.6848 70.1513 20.3997 69.2546 20.3997 68.1454C20.3997 67.3886 20.5345 66.7407 20.804 66.2016C21.0632 65.6626 21.4208 65.2583 21.8769 64.9887C22.3227 64.7088 22.8307 64.5689 23.4008 64.5689C24.0539 64.5689 24.6086 64.7399 25.0647 65.082C25.5105 65.4138 25.8111 65.8129 25.9666 66.2794H26.0288C26.2154 65.6781 26.5471 65.2116 27.024 64.8799C27.5009 64.5378 28.1125 64.3667 28.8589 64.3667C29.4809 64.3667 30.0355 64.5119 30.5227 64.8021C31.01 65.082 31.3935 65.5019 31.6734 66.0617C31.943 66.6111 32.0778 67.2746 32.0778 68.0521C32.0778 69.2235 31.7823 70.1773 31.1914 70.9133C30.6005 71.6493 29.7297 72.0381 28.579 72.0795V69.9647C29.087 69.944 29.4964 69.773 29.8074 69.4516C30.1081 69.1199 30.2584 68.6689 30.2584 68.0987C30.2584 67.57 30.1133 67.1657 29.823 66.8858C29.5224 66.5956 29.1388 66.4504 28.6723 66.4504C28.0503 66.4504 27.6045 66.6474 27.335 67.0413C27.0655 67.4353 26.9307 68.0469 26.9307 68.8762V69.3272H25.1424V68.8762C25.1424 67.4042 24.65 66.6681 23.6652 66.6681C23.2194 66.6681 22.8721 66.8029 22.6233 67.0724C22.3745 67.3316 22.2501 67.71 22.2501 68.2076C22.2501 68.6948 22.3849 69.0732 22.6544 69.3427C22.9136 69.6019 23.2453 69.7522 23.6496 69.7937V71.924ZM26.1843 62.6464C24.3909 62.6464 22.9862 62.325 21.9702 61.6823C20.9543 61.0292 20.4463 59.9511 20.4463 58.4479C20.4463 56.9447 20.9543 55.8718 21.9702 55.2291C22.9862 54.576 24.3909 54.2494 26.1843 54.2494C27.9881 54.2494 29.4031 54.576 30.4294 55.2291C31.4557 55.8718 31.9689 56.9447 31.9689 58.4479C31.9689 59.9511 31.4557 61.0292 30.4294 61.6823C29.4031 62.325 27.9881 62.6464 26.1843 62.6464ZM26.1843 56.3953C25.4172 56.3953 24.7744 56.4471 24.2561 56.5508C23.7274 56.6441 23.2972 56.8411 22.9654 57.1417C22.6337 57.432 22.4678 57.8674 22.4678 58.4479C22.4678 59.0284 22.6337 59.469 22.9654 59.7697C23.2972 60.0599 23.7274 60.2569 24.2561 60.3606C24.7744 60.4539 25.4172 60.5005 26.1843 60.5005C26.9722 60.5005 27.6356 60.4539 28.1747 60.3606C28.7034 60.2673 29.1336 60.0703 29.4653 59.7697C29.7867 59.469 29.9474 59.0284 29.9474 58.4479C29.9474 57.8674 29.7867 57.4268 29.4653 57.1262C29.1336 56.8255 28.7034 56.6286 28.1747 56.5353C27.6356 56.442 26.9722 56.3953 26.1843 56.3953ZM26.1843 52.5936C24.3909 52.5936 22.9862 52.2722 21.9702 51.6295C20.9543 50.9764 20.4463 49.8982 20.4463 48.3951C20.4463 46.8919 20.9543 45.819 21.9702 45.1762C22.9862 44.5231 24.3909 44.1966 26.1843 44.1966C27.9881 44.1966 29.4031 44.5231 30.4294 45.1762C31.4557 45.819 31.9689 46.8919 31.9689 48.3951C31.9689 49.8982 31.4557 50.9764 30.4294 51.6295C29.4031 52.2722 27.9881 52.5936 26.1843 52.5936ZM26.1843 46.3425C25.4172 46.3425 24.7744 46.3943 24.2561 46.498C23.7274 46.5913 23.2972 46.7882 22.9654 47.0889C22.6337 47.3791 22.4678 47.8145 22.4678 48.3951C22.4678 48.9756 22.6337 49.4162 22.9654 49.7168C23.2972 50.0071 23.7274 50.2041 24.2561 50.3077C24.7744 50.401 25.4172 50.4477 26.1843 50.4477C26.9722 50.4477 27.6356 50.401 28.1747 50.3077C28.7034 50.2144 29.1336 50.0175 29.4653 49.7168C29.7867 49.4162 29.9474 48.9756 29.9474 48.3951C29.9474 47.8145 29.7867 47.374 29.4653 47.0733C29.1336 46.7727 28.7034 46.5757 28.1747 46.4824C27.6356 46.3891 26.9722 46.3425 26.1843 46.3425Z" fill="#B8C1C3"/>
</g>
<g style="mix-blend-mode:multiply" opacity="0.8">
<path d="M61.8882 34.9453C69.5886 34.9453 75.8915 41.0058 76.2765 48.6206C75.8915 56.2354 69.5886 62.2958 61.8882 62.2958C54.1879 62.2958 47.885 56.2354 47.5 48.6206C47.885 41.0058 54.1879 34.9453 61.8882 34.9453V34.9453Z" fill="#B8C1C3"/>
<path d="M61.8739 31.8789C70.0876 31.8789 76.7613 38.5525 76.7613 46.7663C76.7613 47.0229 76.7613 47.2796 76.747 47.5363C76.3477 39.6791 69.8309 33.419 61.8739 33.419C53.9169 33.419 47.4001 39.6791 47.0008 47.5363C47.0008 47.2796 46.9866 47.0229 46.9866 46.7663C46.9866 38.5525 53.6602 31.8789 61.8739 31.8789Z" fill="#B8C1C3"/>
<path d="M57.9383 33.9481C56.3983 34.3759 54.9437 35.0461 53.6461 35.916C53.3181 36.1299 53.0044 36.3581 52.6907 36.6005C50.4804 38.3402 48.7692 40.6931 47.828 43.4024C47.3717 44.7144 47.0865 46.0976 47.0152 47.5378C47.0152 47.7945 47.001 48.0512 47.001 48.3079C47.001 56.5216 53.6746 63.1952 61.8883 63.1952C64.9542 63.1952 67.8204 62.2541 70.1876 60.6569C72.5262 59.0741 74.4085 56.8495 75.535 54.2257C75.6919 53.8692 75.8345 53.4985 75.9628 53.1277C76.4619 51.6589 76.7471 50.0904 76.7614 48.4647C76.7614 48.4077 76.7614 48.3506 76.7614 48.2936C76.7614 48.0369 76.7614 47.7802 76.7471 47.5236C76.3479 39.6664 69.8311 33.4062 61.8741 33.4062C60.5051 33.4062 59.1932 33.5916 57.9383 33.9339V33.9481ZM73.9094 46.2687C73.9807 46.6822 74.0235 47.11 74.052 47.5378C74.0663 47.7945 74.0805 48.0512 74.0805 48.3079C74.0805 49.3631 73.9379 50.4041 73.6955 51.3737C73.5957 51.7588 73.4674 52.1438 73.339 52.5288C72.3408 55.2382 70.4015 57.4912 67.9203 58.903C66.1378 59.9154 64.0843 60.5001 61.8883 60.5001C55.1576 60.5001 49.6961 55.0243 49.6961 48.3079C49.6961 48.0512 49.6961 47.7945 49.7246 47.5378C49.7817 46.725 49.91 45.9264 50.1096 45.1564C50.8654 42.3472 52.5909 39.9373 54.9152 38.3117C55.2432 38.0835 55.5854 37.8696 55.9419 37.67C57.4107 36.8429 59.0649 36.3153 60.8188 36.1584C61.1753 36.1299 61.5318 36.1156 61.8883 36.1156C67.9203 36.1156 72.9397 40.5219 73.9094 46.2687Z" fill="#B8C1C3"/>
<path d="M61.874 36.1152C68.3908 36.1152 73.724 41.2488 74.052 47.68C73.724 54.1255 68.3908 59.2591 61.874 59.2591C55.3572 59.2591 50.024 54.1255 49.696 47.6943C50.024 41.2488 55.3572 36.1152 61.874 36.1152V36.1152Z" fill="#B8C1C3"/>
<path d="M73.3248 52.5293L75.535 54.2405C74.3943 56.8501 72.5262 59.0889 70.1876 60.6717L67.906 58.9178C70.3872 57.506 72.3123 55.253 73.3248 52.5436V52.5293Z" fill="#B8C1C3"/>
<path d="M52.6905 36.5996L54.9008 38.3108C52.5764 39.9364 50.851 42.3463 50.0952 45.1555L47.8136 43.4016C48.7548 40.6922 50.4659 38.3393 52.6762 36.5996H52.6905Z" fill="#B8C1C3"/>
<path d="M73.9093 46.2676L76.7756 48.4779C76.7613 50.1035 76.4761 51.6721 75.977 53.1409L73.6954 51.3869C73.9521 50.403 74.0804 49.3762 74.0804 48.321C74.0804 48.0643 74.0805 47.8077 74.0519 47.551C74.0234 47.1232 73.9806 46.6954 73.9093 46.2819V46.2676Z" fill="#B8C1C3"/>
<path d="M57.9382 33.9453L60.8045 36.1556C59.0505 36.3125 57.3821 36.8401 55.9276 37.6671L53.646 35.9132C54.9436 35.0433 56.3982 34.3731 57.9382 33.9453V33.9453Z" fill="#B8C1C3"/>
<path d="M54.1166 48.1395L53.8029 47.6404L54.0025 47.5977L54.2021 48.0825L54.1166 48.1395Z" fill="#B8C1C3"/>
<path d="M58.5229 41.8494C58.7653 41.8494 59.3214 42.0063 60.1913 42.32C61.0754 42.648 61.546 42.8761 61.603 43.033C61.6458 43.1471 61.66 43.3182 61.6743 43.5606C61.6743 43.6604 61.6743 43.7603 61.6743 43.8886C61.6743 44.3734 61.6458 45.0864 61.5887 46.0418C61.5317 46.9973 61.5032 47.7102 61.5032 48.1951C61.5032 49.2218 61.6315 49.7779 61.8597 49.8635C61.8597 49.8635 61.8597 49.8635 61.8739 49.8635C61.988 49.892 62.7438 49.7494 64.1555 49.4357C65.7241 49.0649 66.7936 48.8653 67.3783 48.8368C68.3907 48.794 69.3461 48.9081 70.2302 49.1933C70.8149 49.3787 71.1429 49.5498 71.2142 49.6781L71.5136 50.4054V50.4482H71.5279C71.4138 50.4196 68.7615 49.9063 68.0913 49.9918C66.5227 50.2057 64.7117 50.5622 62.6868 51.0898C62.5584 51.1184 62.4016 51.1469 62.2447 51.1469C61.7028 51.1469 61.0469 50.99 60.2768 50.662C60.0059 50.548 59.792 50.9045 59.6066 50.7761C59.4212 50.662 59.2786 50.4481 59.1503 50.22C58.9934 49.9205 58.8794 49.5926 58.8223 49.4214C58.7653 49.2503 58.751 48.5516 58.751 47.2967V46.6265C58.751 46.4696 58.751 46.327 58.751 46.1987C58.7368 45.6853 58.6797 45.4287 58.5942 45.4287C58.3375 45.4287 57.8954 45.7139 57.2252 46.27C56.5693 46.8404 56.227 47.2397 56.227 47.4963C56.2128 47.8528 56.3268 48.2664 56.5978 48.7655C56.6833 49.0792 56.8402 49.4357 57.0969 49.8207C57.4534 50.3911 57.653 50.7048 57.6958 50.7761C57.6958 50.7761 57.6958 50.7761 57.6958 50.7904C57.6958 50.8332 57.6958 50.8617 57.6673 50.8902C57.653 50.9045 57.6245 50.9187 57.596 50.9187C57.596 50.9187 57.5817 50.9187 57.5675 50.9187C57.2537 50.8617 56.0131 49.8778 54.4445 48.6514C54.3304 48.5659 54.2306 48.466 54.1308 48.3519C53.6888 47.8101 53.4749 47.04 53.4749 46.4268C53.4749 45.942 53.6175 45.557 53.9169 45.2575C54.1308 45.0436 54.7297 44.6444 55.7422 44.0882L57.5247 43.09C57.9239 42.8334 58.1949 42.5482 58.3517 42.2487C58.3945 42.1204 58.4658 41.9778 58.5229 41.8066V41.8494Z" fill="#B8C1C3"/>
<path d="M59.2787 50.2346L58.8937 49.6357L59.2217 49.5645L59.4641 50.1634L59.2787 50.2346Z" fill="#B8C1C3"/>
<path d="M61.5746 43.0035L61.9025 43.7736L61.1753 43.4741V42.918L61.5746 43.0035Z" fill="#B8C1C3"/>
<path d="M58.6512 43.0163C58.5371 43.2302 58.3802 43.4156 58.1663 43.6152C58.0665 43.7008 57.9524 43.7863 57.8241 43.8719L56.0416 44.8701C55.6709 45.084 55.3571 45.2693 55.0862 45.4262C54.6299 45.6971 54.3447 45.911 54.2163 46.0394C53.9169 46.3388 53.7743 46.7239 53.7743 47.2087C53.7743 47.6507 53.8884 48.0358 54.1165 48.3923C54.2734 48.6347 54.4873 48.8628 54.7582 49.0625C56.3268 50.2888 57.2537 50.9163 57.5532 50.9591C57.5532 50.9591 57.5674 50.9591 57.5817 50.9591C57.6102 50.9591 57.6387 50.959 57.653 50.9305C57.6672 50.9163 57.6815 50.8735 57.6815 50.8307C57.6815 50.8307 57.6815 50.8307 57.6815 50.8164C57.6387 50.7451 57.4533 50.4172 57.0826 49.861C56.8259 49.476 56.669 49.1195 56.5835 48.8058C56.5407 48.6204 56.5122 48.4493 56.5264 48.2782C56.5264 48.05 56.8259 47.6793 57.3963 47.1659C57.4391 47.1231 57.4819 47.0946 57.5246 47.0518C58.0665 46.5813 58.4801 46.3103 58.7367 46.2248C58.7938 46.2105 58.8366 46.1962 58.8936 46.1962C59.0077 46.1962 59.0647 46.5955 59.0647 47.3941V48.4065C59.0647 49.4475 59.0932 50.0321 59.136 50.189C59.136 50.2033 59.136 50.2318 59.1503 50.2461C59.3214 50.7024 59.8062 51.1017 60.5905 51.4296C61.3606 51.7576 62.0165 51.9145 62.5584 51.9145C62.7153 51.9145 62.8721 51.9002 63.0004 51.8717C63.1573 51.8289 63.3284 51.7861 63.4853 51.7434C65.0681 51.3441 66.4941 51.0589 67.7775 50.8592C67.9914 50.8307 68.2053 50.7879 68.4192 50.7594C69.1037 50.6739 69.8309 50.6025 70.6152 50.574C71.2142 50.5598 71.5279 50.5312 71.5421 50.5027C71.5421 50.5027 71.5421 50.4885 71.5421 50.4742V50.4314C71.4423 50.3031 71.1143 50.1462 70.5297 49.9466C69.6456 49.6614 68.6902 49.5331 67.6777 49.5901C67.3782 49.6044 66.9219 49.6757 66.3515 49.7755C65.8382 49.8753 65.1965 50.0036 64.4692 50.189C63.0718 50.5027 62.3017 50.6453 62.1876 50.6168C62.0308 50.574 61.9167 50.3316 61.8597 49.861C61.8311 49.6044 61.8169 49.2906 61.8169 48.9199C61.8169 48.435 61.8454 47.722 61.9024 46.7666C61.9024 46.6526 61.9167 46.5385 61.931 46.4244C61.9737 45.6401 62.0023 45.0269 62.0023 44.6134C62.0023 44.1999 61.9737 43.9004 61.931 43.7578C61.9167 43.7008 61.8311 43.6295 61.6885 43.5439C61.4604 43.4156 61.0754 43.2444 60.5192 43.0448C59.6494 42.7311 59.0932 42.5742 58.8508 42.5742C58.7795 42.7311 58.7225 42.8737 58.6797 43.0163H58.6512Z" fill="#B8C1C3"/>
<path d="M58.1663 43.6172L61.9167 46.4549C61.9167 46.569 61.9024 46.6831 61.8882 46.7972C61.8311 47.7526 61.8026 48.4798 61.8026 48.9504C61.8026 50.0056 61.931 50.5618 62.1734 50.6331C62.2875 50.6616 63.0575 50.519 64.455 50.2053C65.1965 50.0342 65.8239 49.8915 66.3373 49.7917L67.7775 50.8755C66.4941 51.0751 65.0681 51.3603 63.4853 51.7596L59.0647 48.4228C59.0647 48.3087 59.0647 48.1946 59.0647 48.0805V47.4103C59.0647 46.6118 59.0077 46.2125 58.9079 46.2125C58.6512 46.2125 58.1949 46.4977 57.5389 47.0681C57.4961 47.1109 57.4534 47.1394 57.4106 47.1822L55.1005 45.4282C55.3571 45.2713 55.6851 45.086 56.0559 44.8721L57.8384 43.8739C57.9667 43.7883 58.0808 43.7027 58.1806 43.6172H58.1663Z" fill="#B8C1C3"/>
<path d="M62.373 40.6465C70.0733 40.6465 76.3762 46.707 76.7612 54.3217C76.3762 61.9365 70.0733 67.997 62.373 67.997C54.6726 67.997 48.3698 61.9365 47.9847 54.3217C48.3698 46.707 54.6726 40.6465 62.373 40.6465V40.6465Z" fill="#B8C1C3"/>
<path d="M62.3731 37.5801C70.5868 37.5801 77.2604 44.2537 77.2604 52.4674C77.2604 52.7241 77.2604 52.9808 77.2462 53.2375C76.8469 45.3802 70.3301 39.1202 62.3731 39.1202C54.416 39.1202 47.8993 45.3802 47.5 53.2375C47.5 52.9808 47.4857 52.7241 47.4857 52.4674C47.4857 44.2537 54.1594 37.5801 62.3731 37.5801V37.5801Z" fill="#B8C1C3"/>
<path d="M58.4231 39.6474C56.883 40.0751 55.4285 40.7454 54.1308 41.6152C53.8029 41.8291 53.4891 42.0573 53.1754 42.2997C50.9651 44.0394 49.2539 46.3923 48.3128 49.1017C47.8565 50.4136 47.5713 51.7968 47.5 53.237C47.5 53.4937 47.4857 53.7504 47.4857 54.0071C47.4857 62.2208 54.1594 68.8944 62.3731 68.8944C65.4389 68.8944 68.3052 67.9533 70.6723 66.3562C73.011 64.7733 74.8933 62.5488 76.0198 59.9249C76.1767 59.5684 76.3193 59.1977 76.4476 58.8269C76.9467 57.3582 77.2319 55.7896 77.2462 54.1639C77.2462 54.1069 77.2462 54.0499 77.2462 53.9928C77.2462 53.7362 77.2461 53.4795 77.2319 53.2228C76.8326 45.3656 70.3158 39.1055 62.3588 39.1055C60.9899 39.1055 59.6779 39.2909 58.4231 39.6331V39.6474ZM74.3942 51.9679C74.4655 52.3814 74.5082 52.8092 74.5368 53.237C74.551 53.4937 74.5653 53.7504 74.5653 54.0071C74.5653 55.0623 74.4227 56.1033 74.1803 57.073C74.0805 57.458 73.9521 57.843 73.8238 58.228C72.8256 60.9374 70.8862 63.1905 68.405 64.6022C66.6225 65.6146 64.5691 66.1993 62.3731 66.1993C55.6424 66.1993 50.1808 60.7235 50.1808 54.0071C50.1808 53.7504 50.1808 53.4937 50.2094 53.237C50.2664 52.4242 50.3947 51.6257 50.5944 50.8556C51.3502 48.0464 53.0756 45.6365 55.4 44.0109C55.7279 43.7827 56.0702 43.5688 56.4267 43.3692C57.8955 42.5421 59.5496 42.0145 61.3036 41.8576C61.6601 41.8291 62.0166 41.8149 62.3731 41.8149C68.405 41.8149 73.4245 46.2212 74.3942 51.9679V51.9679Z" fill="#B8C1C3"/>
<path d="M62.3732 41.8145C68.8899 41.8145 74.2231 46.948 74.5511 53.3792C74.2231 59.8247 68.8899 64.9583 62.3732 64.9583C55.8564 64.9583 50.5232 59.8247 50.1952 53.3935C50.5232 46.948 55.8564 41.8145 62.3732 41.8145V41.8145Z" fill="#B8C1C3"/>
<path d="M73.8096 58.2305L76.0199 59.9417C74.8791 62.5512 73.011 64.79 70.6724 66.3729L68.3908 64.6189C70.872 63.2072 72.7971 60.9541 73.8096 58.2447V58.2305Z" fill="#B8C1C3"/>
<path d="M53.1755 42.2988L55.3858 44.01C53.0614 45.6357 51.3359 48.0456 50.5802 50.8548L48.2986 49.1008C49.2397 46.3914 50.9509 44.0385 53.1612 42.2988H53.1755Z" fill="#B8C1C3"/>
<path d="M74.3942 51.9688L77.2604 54.179C77.2462 55.8047 76.961 57.3733 76.4619 58.842L74.1803 57.0881C74.437 56.1041 74.5653 55.0774 74.5653 54.0222C74.5653 53.7655 74.5653 53.5088 74.5368 53.2522C74.5083 52.8244 74.4655 52.3966 74.3942 51.983V51.9688Z" fill="#B8C1C3"/>
<path d="M58.4232 39.6465L61.2895 41.8568C59.5355 42.0136 57.8671 42.5412 56.4126 43.3683L54.131 41.6143C55.4286 40.7445 56.8831 40.0743 58.4232 39.6465V39.6465Z" fill="#B8C1C3"/>
<path d="M54.6157 53.8388L54.2877 53.3397L54.4874 53.2969L54.687 53.7817L54.6157 53.8388Z" fill="#B8C1C3"/>
<path d="M59.0077 47.5486C59.2501 47.5486 59.8063 47.7055 60.6761 48.0192C61.5602 48.3472 62.0308 48.5754 62.0879 48.7322C62.1306 48.8463 62.1449 49.0174 62.1592 49.2598C62.1592 49.3596 62.1592 49.4595 62.1592 49.5878C62.1592 50.0726 62.1306 50.7856 62.0736 51.7411C62.0166 52.6965 61.988 53.4095 61.988 53.8943C61.988 54.921 62.1164 55.4771 62.3445 55.5627C62.3445 55.5627 62.3445 55.5627 62.3588 55.5627C62.4729 55.5912 63.2287 55.4486 64.6404 55.1349C66.209 54.7641 67.2785 54.5645 67.8631 54.536C68.8756 54.4932 69.831 54.6073 70.7151 54.8925C71.2998 55.0779 71.6277 55.249 71.699 55.3773L71.9985 56.1046V56.1474H72.0128C71.8987 56.1188 69.2463 55.6055 68.5761 55.691C67.0075 55.9049 65.1965 56.2614 63.1716 56.7891C63.0433 56.8176 62.8864 56.8461 62.7296 56.8461C62.1877 56.8461 61.5317 56.6892 60.7617 56.3613C60.4908 56.2472 60.2769 56.6037 60.0915 56.4753C59.9061 56.3613 59.7635 56.1474 59.6352 55.9192C59.4783 55.6197 59.3642 55.2918 59.3072 55.1206C59.2501 54.9495 59.2359 54.2508 59.2359 52.9959V52.3257C59.2359 52.1688 59.2359 52.0263 59.2359 51.8979C59.2216 51.3846 59.1646 51.1279 59.079 51.1279C58.8223 51.1279 58.3803 51.4131 57.7101 51.9692C57.0541 52.5396 56.7119 52.9389 56.7119 53.1955C56.6976 53.552 56.8117 53.9656 57.0826 54.4647C57.1682 54.7784 57.3251 55.1349 57.5817 55.5199C57.9382 56.0903 58.1379 56.404 58.1806 56.4753C58.1806 56.4753 58.1806 56.4753 58.1806 56.4896C58.1806 56.5324 58.1807 56.5609 58.1521 56.5894C58.1379 56.6037 58.1093 56.6179 58.0808 56.6179C58.0808 56.6179 58.0666 56.6179 58.0523 56.6179C57.7386 56.5609 56.498 55.577 54.9294 54.3506C54.8153 54.2651 54.7155 54.1652 54.6157 54.0512C54.1736 53.5093 53.9597 52.7392 53.9597 52.1261C53.9597 51.6412 54.1023 51.2562 54.4018 50.9568C54.6157 50.7429 55.2146 50.3436 56.227 49.7874L58.0095 48.7892C58.4088 48.5326 58.6797 48.2474 58.8366 47.9479C58.8794 47.8196 58.9507 47.677 59.0077 47.5059V47.5486Z" fill="#B8C1C3"/>
<path d="M59.7637 55.9339L59.3929 55.335L59.7067 55.2637L59.9491 55.8626L59.7637 55.9339Z" fill="#B8C1C3"/>
<path d="M62.0596 48.7027L62.3875 49.4728L61.6603 49.1733V48.6172L62.0596 48.7027Z" fill="#B8C1C3"/>
<path d="M59.1504 48.7174C59.0364 48.9313 58.8795 49.1167 58.6656 49.3164C58.5658 49.4019 58.4517 49.4875 58.3234 49.573L56.5409 50.5712C56.1701 50.7851 55.8564 50.9705 55.5855 51.1274C55.1292 51.3983 54.844 51.6122 54.7156 51.7406C54.4162 52.04 54.2736 52.425 54.2736 52.9099C54.2736 53.3519 54.3876 53.7369 54.6158 54.0934C54.7727 54.3359 54.9866 54.564 55.2575 54.7637C56.8261 55.99 57.753 56.6174 58.0524 56.6602C58.0524 56.6602 58.0667 56.6602 58.081 56.6602C58.1095 56.6602 58.138 56.6602 58.1523 56.6317C58.1665 56.6174 58.1808 56.5747 58.1808 56.5319C58.1808 56.5319 58.1808 56.5319 58.1808 56.5176C58.138 56.4463 57.9526 56.1183 57.5819 55.5622C57.3252 55.1772 57.1683 54.8207 57.0828 54.507C57.04 54.3216 57.0115 54.1505 57.0257 53.9794C57.0257 53.7512 57.3252 53.3804 57.8956 52.8671C57.9384 52.8243 57.9811 52.7958 58.0239 52.753C58.5658 52.2824 58.9793 52.0115 59.236 51.9259C59.293 51.9117 59.3358 51.8974 59.3929 51.8974C59.5069 51.8974 59.564 52.2967 59.564 53.0952V54.1077C59.564 55.1487 59.5925 55.7333 59.6353 55.8902C59.6353 55.9044 59.6353 55.933 59.6495 55.9472C59.8207 56.4035 60.3055 56.8028 61.0898 57.1308C61.8598 57.4588 62.5158 57.6156 63.0577 57.6156C63.2145 57.6156 63.3714 57.6014 63.4997 57.5729C63.6566 57.5301 63.8277 57.4873 63.9846 57.4445C65.5674 57.0452 66.9934 56.76 68.2768 56.5604C68.4907 56.5319 68.7046 56.4891 68.9185 56.4606C69.603 56.375 70.3302 56.3037 71.1145 56.2752C71.7134 56.2609 72.0271 56.2324 72.0414 56.2039C72.0414 56.2039 72.0414 56.1897 72.0414 56.1754V56.1326C71.9416 56.0043 71.6136 55.8474 71.029 55.6478C70.1448 55.3626 69.1894 55.2342 68.177 55.2913C67.8775 55.3055 67.4212 55.3768 66.8508 55.4766C66.3374 55.5765 65.6957 55.7048 64.9685 55.8902C63.571 56.2039 62.801 56.3465 62.6869 56.318C62.53 56.2752 62.416 56.0328 62.3589 55.5622C62.3304 55.3055 62.3161 54.9918 62.3161 54.621C62.3161 54.1362 62.3447 53.4232 62.4017 52.4678C62.4017 52.3537 62.416 52.2396 62.4302 52.1256C62.473 51.3413 62.5015 50.7281 62.5015 50.3146C62.5015 49.901 62.473 49.6016 62.4302 49.459C62.416 49.4019 62.3304 49.3306 62.1878 49.2451C61.9596 49.1167 61.5746 48.9456 61.0185 48.746C60.1486 48.4323 59.5925 48.2754 59.3501 48.2754C59.2788 48.4322 59.2217 48.5748 59.179 48.7174H59.1504Z" fill="#B8C1C3"/>
<path d="M58.6515 49.3184L62.4018 52.1561C62.4018 52.2702 62.3876 52.3843 62.3733 52.4983C62.3163 53.4537 62.2877 54.181 62.2877 54.6516C62.2877 55.7068 62.4161 56.263 62.6585 56.3343C62.7726 56.3628 63.5426 56.2202 64.9401 55.9065C65.6816 55.7353 66.309 55.5927 66.8224 55.4929L68.2626 56.5767C66.9792 56.7763 65.5532 57.0615 63.9704 57.4608L59.5498 54.124C59.5498 54.0099 59.5498 53.8958 59.5498 53.7817V53.1115C59.5498 52.3129 59.4928 51.9137 59.393 51.9137C59.1363 51.9137 58.68 52.1989 58.024 52.7693C57.9812 52.8121 57.9385 52.8406 57.8957 52.8833L55.5856 51.1294C55.8422 50.9725 56.1702 50.7871 56.541 50.5732L58.3235 49.575C58.4518 49.4895 58.5659 49.4039 58.6657 49.3184H58.6515Z" fill="#B8C1C3"/>
</g>
<path d="M22.5246 72.1018C21.488 72.0499 20.6897 71.6871 20.1299 71.0133C19.5598 70.3291 19.2747 69.4324 19.2747 68.3231C19.2747 67.5664 19.4095 66.9184 19.679 66.3794C19.9382 65.8403 20.2958 65.436 20.7519 65.1665C21.1977 64.8866 21.7057 64.7466 22.2758 64.7466C22.9289 64.7466 23.4836 64.9177 23.9397 65.2598C24.3855 65.5915 24.6861 65.9906 24.8416 66.4571H24.9038C25.0904 65.8559 25.4221 65.3894 25.899 65.0576C26.3759 64.7155 26.9875 64.5445 27.7339 64.5445C28.3559 64.5445 28.9105 64.6896 29.3977 64.9799C29.885 65.2598 30.2685 65.6796 30.5484 66.2394C30.818 66.7889 30.9528 67.4523 30.9528 68.2298C30.9528 69.4013 30.6573 70.355 30.0664 71.091C29.4755 71.8271 28.6047 72.2158 27.454 72.2573V70.1425C27.962 70.1217 28.3714 69.9507 28.6824 69.6293C28.9831 69.2976 29.1334 68.8466 29.1334 68.2765C29.1334 67.7478 28.9883 67.3435 28.698 67.0636C28.3974 66.7733 28.0138 66.6282 27.5473 66.6282C26.9253 66.6282 26.4795 66.8251 26.21 67.2191C25.9405 67.613 25.8057 68.2246 25.8057 69.054V69.5049H24.0174V69.054C24.0174 67.5819 23.525 66.8459 22.5402 66.8459C22.0944 66.8459 21.7471 66.9806 21.4983 67.2502C21.2495 67.5093 21.1251 67.8877 21.1251 68.3853C21.1251 68.8726 21.2599 69.2509 21.5294 69.5205C21.7886 69.7796 22.1203 69.93 22.5246 69.9714V72.1018ZM25.0593 62.8241C23.2659 62.8241 21.8612 62.5028 20.8452 61.86C19.8293 61.2069 19.3213 60.1288 19.3213 58.6256C19.3213 57.1225 19.8293 56.0495 20.8452 55.4068C21.8612 54.7537 23.2659 54.4271 25.0593 54.4271C26.8631 54.4271 28.2781 54.7537 29.3044 55.4068C30.3307 56.0495 30.8439 57.1225 30.8439 58.6256C30.8439 60.1288 30.3307 61.2069 29.3044 61.86C28.2781 62.5028 26.8631 62.8241 25.0593 62.8241ZM25.0593 56.573C24.2922 56.573 23.6494 56.6249 23.1311 56.7285C22.6024 56.8218 22.1722 57.0188 21.8404 57.3194C21.5087 57.6097 21.3428 58.0451 21.3428 58.6256C21.3428 59.2062 21.5087 59.6468 21.8404 59.9474C22.1722 60.2377 22.6024 60.4346 23.1311 60.5383C23.6494 60.6316 24.2922 60.6782 25.0593 60.6782C25.8472 60.6782 26.5106 60.6316 27.0497 60.5383C27.5784 60.445 28.0086 60.248 28.3403 59.9474C28.6617 59.6468 28.8224 59.2062 28.8224 58.6256C28.8224 58.0451 28.6617 57.6045 28.3403 57.3039C28.0086 57.0033 27.5784 56.8063 27.0497 56.713C26.5106 56.6197 25.8472 56.573 25.0593 56.573ZM25.0593 52.7713C23.2659 52.7713 21.8612 52.4499 20.8452 51.8072C19.8293 51.1541 19.3213 50.076 19.3213 48.5728C19.3213 47.0696 19.8293 45.9967 20.8452 45.354C21.8612 44.7009 23.2659 44.3743 25.0593 44.3743C26.8631 44.3743 28.2781 44.7009 29.3044 45.354C30.3307 45.9967 30.8439 47.0696 30.8439 48.5728C30.8439 50.076 30.3307 51.1541 29.3044 51.8072C28.2781 52.4499 26.8631 52.7713 25.0593 52.7713ZM25.0593 46.5202C24.2922 46.5202 23.6494 46.572 23.1311 46.6757C22.6024 46.769 22.1722 46.966 21.8404 47.2666C21.5087 47.5569 21.3428 47.9923 21.3428 48.5728C21.3428 49.1533 21.5087 49.5939 21.8404 49.8946C22.1722 50.1848 22.6024 50.3818 23.1311 50.4855C23.6494 50.5788 24.2922 50.6254 25.0593 50.6254C25.8472 50.6254 26.5106 50.5788 27.0497 50.4855C27.5784 50.3922 28.0086 50.1952 28.3403 49.8946C28.6617 49.5939 28.8224 49.1533 28.8224 48.5728C28.8224 47.9923 28.6617 47.5517 28.3403 47.2511C28.0086 46.9504 27.5784 46.7535 27.0497 46.6602C26.5106 46.5669 25.8472 46.5202 25.0593 46.5202Z" fill="#F7E0B6"/>
<path d="M60.4621 34.9414C68.1625 34.9414 74.4653 41.0019 74.8504 48.6167C74.4653 56.2315 68.1625 62.2919 60.4621 62.2919C52.7618 62.2919 46.4589 56.2315 46.0739 48.6167C46.4589 41.0019 52.7618 34.9414 60.4621 34.9414V34.9414Z" fill="#E27E3A"/>
<path d="M60.4479 31.875C68.6616 31.875 75.3352 38.5486 75.3352 46.7623C75.3352 47.019 75.3352 47.2757 75.321 47.5324C74.9217 39.6752 68.4049 33.4151 60.4479 33.4151C52.4909 33.4151 45.9741 39.6752 45.5748 47.5324C45.5748 47.2757 45.5605 47.019 45.5605 46.7623C45.5605 38.5486 52.2342 31.875 60.4479 31.875Z" fill="#E27E3A"/>
<path d="M56.5122 33.9442C54.9721 34.372 53.5176 35.0422 52.2199 35.9121C51.892 36.126 51.5782 36.3542 51.2645 36.5966C49.0542 38.3363 47.3431 40.6892 46.4019 43.3985C45.9456 44.7105 45.6604 46.0937 45.5891 47.5339C45.5891 47.7906 45.5748 48.0473 45.5748 48.304C45.5748 56.5177 52.2485 63.1913 60.4622 63.1913C63.5281 63.1913 66.3943 62.2502 68.7614 60.653C71.1001 59.0702 72.9824 56.8456 74.1089 54.2218C74.2658 53.8653 74.4084 53.4946 74.5367 53.1238C75.0358 51.655 75.321 50.0864 75.3353 48.4608C75.3353 48.4038 75.3353 48.3467 75.3353 48.2897C75.3353 48.033 75.3353 47.7763 75.321 47.5197C74.9217 39.6624 68.4049 33.4023 60.4479 33.4023C59.079 33.4023 57.767 33.5877 56.5122 33.93V33.9442ZM72.4833 46.2648C72.5546 46.6783 72.5974 47.1061 72.6259 47.5339C72.6401 47.7906 72.6544 48.0473 72.6544 48.304C72.6544 49.3592 72.5118 50.4002 72.2694 51.3698C72.1696 51.7548 72.0412 52.1399 71.9129 52.5249C70.9147 55.2343 68.9753 57.4873 66.4941 58.8991C64.7116 59.9115 62.6582 60.4962 60.4622 60.4962C53.7315 60.4962 48.27 55.0204 48.27 48.304C48.27 48.0473 48.27 47.7906 48.2985 47.5339C48.3555 46.7211 48.4838 45.9225 48.6835 45.1525C49.4393 42.3433 51.1647 39.9334 53.4891 38.3078C53.8171 38.0796 54.1593 37.8657 54.5158 37.6661C55.9846 36.839 57.6387 36.3114 59.3927 36.1545C59.7492 36.126 60.1057 36.1117 60.4622 36.1117C66.4941 36.1117 71.5136 40.518 72.4833 46.2648Z" fill="#F0C069"/>
<path d="M60.448 36.1113C66.9648 36.1113 72.298 41.2449 72.6259 47.6761C72.298 54.1216 66.9648 59.2552 60.448 59.2552C53.9312 59.2552 48.598 54.1216 48.27 47.6904C48.598 41.2449 53.9312 36.1113 60.448 36.1113V36.1113Z" fill="#E3AD43"/>
<path d="M71.8987 52.5254L74.109 54.2366C72.9682 56.8462 71.1002 59.085 68.7616 60.6678L66.48 58.9138C68.9612 57.5021 70.8863 55.249 71.8987 52.5397V52.5254Z" fill="#F4C985"/>
<path d="M51.2645 36.5938L53.4747 38.3049C51.1504 39.9306 49.4249 42.3405 48.6692 45.1497L46.3876 43.3957C47.3287 40.6863 49.0399 38.3335 51.2502 36.5938H51.2645Z" fill="#F4C985"/>
<path d="M72.4833 46.2637L75.3495 48.474C75.3353 50.0996 75.0501 51.6682 74.551 53.137L72.2694 51.383C72.5261 50.3991 72.6544 49.3723 72.6544 48.3171C72.6544 48.0604 72.6544 47.8038 72.6259 47.5471C72.5974 47.1193 72.5546 46.6915 72.4833 46.2779V46.2637Z" fill="#F4C985"/>
<path d="M56.5122 33.9414L59.3784 36.1517C57.6245 36.3085 55.9561 36.8362 54.5016 37.6632L52.22 35.9093C53.5176 35.0394 54.9721 34.3692 56.5122 33.9414V33.9414Z" fill="#F4C985"/>
<path d="M52.6907 48.1376L52.377 47.6385L52.5766 47.5957L52.7762 48.0805L52.6907 48.1376Z" fill="#E27E3A"/>
<path d="M57.097 41.8475C57.3394 41.8475 57.8955 42.0043 58.7654 42.318C59.6495 42.646 60.1201 42.8742 60.1771 43.031C60.2199 43.1451 60.2341 43.3162 60.2484 43.5587C60.2484 43.6585 60.2484 43.7583 60.2484 43.8866C60.2484 44.3715 60.2199 45.0845 60.1628 46.0399C60.1058 46.9953 60.0773 47.7083 60.0773 48.1931C60.0773 49.2198 60.2056 49.776 60.4338 49.8615C60.4338 49.8615 60.4338 49.8615 60.448 49.8615C60.5621 49.8901 61.3179 49.7475 62.7296 49.4337C64.2982 49.063 65.3677 48.8633 65.9524 48.8348C66.9648 48.792 67.9202 48.9061 68.8043 49.1913C69.389 49.3767 69.717 49.5478 69.7883 49.6762L70.0877 50.4034V50.4462H70.102C69.9879 50.4177 67.3356 49.9043 66.6654 49.9899C65.0968 50.2038 63.2858 50.5603 61.2609 51.0879C61.1325 51.1164 60.9757 51.1449 60.8188 51.1449C60.2769 51.1449 59.621 50.9881 58.8509 50.6601C58.58 50.546 58.3661 50.9025 58.1807 50.7742C57.9953 50.6601 57.8527 50.4462 57.7244 50.218C57.5675 49.9186 57.4535 49.5906 57.3964 49.4195C57.3394 49.2484 57.3251 48.5496 57.3251 47.2948V46.6245C57.3251 46.4677 57.3251 46.3251 57.3251 46.1968C57.3109 45.6834 57.2538 45.4267 57.1683 45.4267C56.9116 45.4267 56.4695 45.7119 55.7993 46.268C55.1434 46.8384 54.8011 47.2377 54.8011 47.4944C54.7869 47.8509 54.9009 48.2644 55.1719 48.7635C55.2574 49.0772 55.4143 49.4337 55.671 49.8188C56.0275 50.3892 56.2271 50.7029 56.2699 50.7742C56.2699 50.7742 56.2699 50.7742 56.2699 50.7884C56.2699 50.8312 56.2699 50.8597 56.2414 50.8883C56.2271 50.9025 56.1986 50.9168 56.1701 50.9168C56.1701 50.9168 56.1558 50.9168 56.1415 50.9168C55.8278 50.8597 54.5872 49.8758 53.0186 48.6495C52.9045 48.5639 52.8047 48.4641 52.7049 48.35C52.2629 47.8081 52.049 47.0381 52.049 46.4249C52.049 45.9401 52.1916 45.5551 52.491 45.2556C52.7049 45.0417 53.3038 44.6424 54.3163 44.0863L56.0988 43.0881C56.498 42.8314 56.769 42.5462 56.9258 42.2468C56.9686 42.1184 57.0399 41.9758 57.097 41.8047V41.8475Z" fill="#E27E3A"/>
<path d="M57.8528 50.2327L57.4678 49.6338L57.7958 49.5625L58.0382 50.1614L57.8528 50.2327Z" fill="#E27E3A"/>
<path d="M60.1487 43.0016L60.4766 43.7716L59.7494 43.4722V42.916L60.1487 43.0016Z" fill="#E27E3A"/>
<path d="M57.2253 43.0124C57.1112 43.2263 56.9543 43.4117 56.7404 43.6113C56.6406 43.6969 56.5265 43.7824 56.3982 43.868L54.6157 44.8662C54.245 45.0801 53.9312 45.2654 53.6603 45.4223C53.204 45.6932 52.9188 45.9071 52.7904 46.0355C52.491 46.3349 52.3484 46.7199 52.3484 47.2048C52.3484 47.6468 52.4625 48.0319 52.6906 48.3884C52.8475 48.6308 53.0614 48.8589 53.3323 49.0586C54.9009 50.2849 55.8278 50.9124 56.1273 50.9551C56.1273 50.9551 56.1415 50.9551 56.1558 50.9551C56.1843 50.9551 56.2128 50.9551 56.2271 50.9266C56.2413 50.9124 56.2556 50.8696 56.2556 50.8268C56.2556 50.8268 56.2556 50.8268 56.2556 50.8125C56.2128 50.7412 56.0274 50.4133 55.6567 49.8571C55.4 49.4721 55.2431 49.1156 55.1576 48.8019C55.1148 48.6165 55.0863 48.4454 55.1005 48.2743C55.1005 48.0461 55.4 47.6754 55.9704 47.162C56.0132 47.1192 56.056 47.0907 56.0987 47.0479C56.6406 46.5773 57.0542 46.3064 57.3108 46.2208C57.3679 46.2066 57.4107 46.1923 57.4677 46.1923C57.5818 46.1923 57.6388 46.5916 57.6388 47.3902V48.4026C57.6388 49.4436 57.6673 50.0282 57.7101 50.1851C57.7101 50.1994 57.7101 50.2279 57.7244 50.2422C57.8955 50.6985 58.3803 51.0977 59.1646 51.4257C59.9347 51.7537 60.5906 51.9106 61.1325 51.9106C61.2894 51.9106 61.4462 51.8963 61.5745 51.8678C61.7314 51.825 61.9025 51.7822 62.0594 51.7394C63.6422 51.3402 65.0682 51.055 66.3516 50.8553C66.5655 50.8268 66.7794 50.784 66.9933 50.7555C67.6778 50.6699 68.405 50.5986 69.1893 50.5701C69.7883 50.5559 70.102 50.5273 70.1162 50.4988C70.1162 50.4988 70.1162 50.4846 70.1162 50.4703V50.4275C70.0164 50.2992 69.6884 50.1423 69.1038 49.9427C68.2197 49.6575 67.2643 49.5291 66.2518 49.5862C65.9523 49.6004 65.496 49.6718 64.9256 49.7716C64.4123 49.8714 63.7706 49.9997 63.0433 50.1851C61.6458 50.4988 60.8758 50.6414 60.7617 50.6129C60.6049 50.5701 60.4908 50.3277 60.4338 49.8571C60.4052 49.6004 60.391 49.2867 60.391 48.916C60.391 48.4311 60.4195 47.7181 60.4765 46.7627C60.4765 46.6487 60.4908 46.5346 60.5051 46.4205C60.5478 45.6362 60.5764 45.023 60.5764 44.6095C60.5764 44.196 60.5478 43.8965 60.5051 43.7539C60.4908 43.6968 60.4052 43.6255 60.2626 43.54C60.0345 43.4116 59.6495 43.2405 59.0933 43.0409C58.2235 42.7272 57.6673 42.5703 57.4249 42.5703C57.3536 42.7272 57.2966 42.8698 57.2538 43.0124H57.2253Z" fill="#F0C069"/>
<path d="M56.7404 43.6133L60.4908 46.451C60.4908 46.5651 60.4765 46.6792 60.4623 46.7932C60.4052 47.7487 60.3767 48.4759 60.3767 48.9465C60.3767 50.0017 60.5051 50.5579 60.7475 50.6292C60.8616 50.6577 61.6316 50.5151 63.0291 50.2014C63.7706 50.0302 64.398 49.8876 64.9114 49.7878L66.3516 50.8716C65.0682 51.0712 63.6422 51.3564 62.0594 51.7557L57.6388 48.4189C57.6388 48.3048 57.6388 48.1907 57.6388 48.0766V47.4064C57.6388 46.6079 57.5818 46.2086 57.482 46.2086C57.2253 46.2086 56.769 46.4938 56.113 47.0642C56.0702 47.107 56.0274 47.1355 55.9847 47.1782L53.6746 45.4243C53.9312 45.2674 54.2592 45.082 54.63 44.8681L56.4125 43.87C56.5408 43.7844 56.6549 43.6988 56.7547 43.6133H56.7404Z" fill="#F4C985"/>
<path d="M60.9468 40.6426C68.6472 40.6426 74.9501 46.703 75.3351 54.3178C74.9501 61.9326 68.6472 67.9931 60.9468 67.9931C53.2465 67.9931 46.9436 61.9326 46.5586 54.3178C46.9436 46.703 53.2465 40.6426 60.9468 40.6426V40.6426Z" fill="#E27E3A"/>
<path d="M60.9469 37.5762C69.1606 37.5762 75.8343 44.2498 75.8343 52.4635C75.8343 52.7202 75.8343 52.9769 75.82 53.2335C75.4207 45.3763 68.9039 39.1162 60.9469 39.1162C52.9899 39.1162 46.4731 45.3763 46.0738 53.2335C46.0738 52.9769 46.0596 52.7202 46.0596 52.4635C46.0596 44.2498 52.7332 37.5762 60.9469 37.5762V37.5762Z" fill="#E27E3A"/>
<path d="M56.9969 39.6454C55.4569 40.0732 54.0023 40.7434 52.7047 41.6133C52.3767 41.8272 52.063 42.0553 51.7493 42.2977C49.539 44.0375 47.8278 46.3903 46.8866 49.0997C46.4303 50.4116 46.1451 51.7948 46.0738 53.2351C46.0738 53.4918 46.0596 53.7484 46.0596 54.0051C46.0596 62.2188 52.7332 68.8925 60.9469 68.8925C64.0128 68.8925 66.879 67.9513 69.2462 66.3542C71.5848 64.7714 73.4671 62.5468 74.5937 59.923C74.7505 59.5665 74.8931 59.1957 75.0215 58.825C75.5206 57.3562 75.8057 55.7876 75.82 54.162C75.82 54.1049 75.82 54.0479 75.82 53.9909C75.82 53.7342 75.82 53.4775 75.8057 53.2208C75.4065 45.3636 68.8897 39.1035 60.9327 39.1035C59.5637 39.1035 58.2518 39.2889 56.9969 39.6311V39.6454ZM72.968 51.9659C73.0393 52.3795 73.0821 52.8073 73.1106 53.2351C73.1249 53.4918 73.1391 53.7484 73.1391 54.0051C73.1391 55.0604 72.9965 56.1013 72.7541 57.071C72.6543 57.456 72.526 57.841 72.3976 58.226C71.3994 60.9354 69.4601 63.1885 66.9789 64.6002C65.1964 65.6127 63.1429 66.1974 60.9469 66.1974C54.2162 66.1974 48.7547 60.7215 48.7547 54.0051C48.7547 53.7484 48.7547 53.4918 48.7832 53.2351C48.8403 52.4223 48.9686 51.6237 49.1682 50.8537C49.924 48.0445 51.6495 45.6346 53.9738 44.0089C54.3018 43.7808 54.644 43.5669 55.0005 43.3672C56.4693 42.5402 58.1235 42.0125 59.8774 41.8557C60.2339 41.8272 60.5904 41.8129 60.9469 41.8129C66.9789 41.8129 71.9983 46.2192 72.968 51.9659V51.9659Z" fill="#F0C069"/>
<path d="M60.947 41.8125C67.4638 41.8125 72.797 46.9461 73.125 53.3773C72.797 59.8228 67.4638 64.9563 60.947 64.9563C54.4302 64.9563 49.097 59.8228 48.769 53.3915C49.097 46.9461 54.4302 41.8125 60.947 41.8125V41.8125Z" fill="#E3AD43"/>
<path d="M72.3834 58.2266L74.5937 59.9378C73.4529 62.5473 71.5849 64.7861 69.2462 66.369L66.9647 64.615C69.4459 63.2033 71.371 60.9502 72.3834 58.2408V58.2266Z" fill="#F4C985"/>
<path d="M51.7492 42.2949L53.9595 44.0061C51.6351 45.6317 49.9097 48.0417 49.1539 50.8509L46.8723 49.0969C47.8135 46.3875 49.5247 44.0346 51.7349 42.2949H51.7492Z" fill="#F4C985"/>
<path d="M72.968 51.9648L75.8342 54.1751C75.82 55.8008 75.5348 57.3694 75.0357 58.8381L72.7541 57.0842C73.0108 56.1002 73.1391 55.0735 73.1391 54.0183C73.1391 53.7616 73.1391 53.5049 73.1106 53.2482C73.0821 52.8205 73.0393 52.3927 72.968 51.9791V51.9648Z" fill="#F4C985"/>
<path d="M56.9971 39.6426L59.8633 41.8529C58.1093 42.0097 56.4409 42.5373 54.9864 43.3644L52.7048 41.6104C54.0025 40.7406 55.457 40.0704 56.9971 39.6426V39.6426Z" fill="#F4C985"/>
<path d="M53.1895 53.8349L52.8616 53.3357L53.0612 53.293L53.2609 53.7778L53.1895 53.8349Z" fill="#E27E3A"/>
<path d="M57.5816 47.5447C57.824 47.5447 58.3801 47.7016 59.25 48.0153C60.1341 48.3433 60.6047 48.5714 60.6617 48.7283C60.7045 48.8424 60.7188 49.0135 60.733 49.2559C60.733 49.3557 60.733 49.4555 60.733 49.5839C60.733 50.0687 60.7045 50.7817 60.6475 51.7371C60.5904 52.6926 60.5619 53.4055 60.5619 53.8904C60.5619 54.9171 60.6902 55.4732 60.9184 55.5588C60.9184 55.5588 60.9184 55.5588 60.9327 55.5588C61.0467 55.5873 61.8025 55.4447 63.2142 55.131C64.7828 54.7602 65.8523 54.5606 66.437 54.5321C67.4494 54.4893 68.4048 54.6034 69.289 54.8886C69.8736 55.074 70.2016 55.2451 70.2729 55.3734L70.5724 56.1007V56.1435H70.5866C70.4725 56.1149 67.8202 55.6016 67.15 55.6871C65.5814 55.901 63.7704 56.2575 61.7455 56.7851C61.6171 56.8137 61.4603 56.8422 61.3034 56.8422C60.7615 56.8422 60.1056 56.6853 59.3355 56.3573C59.0646 56.2433 58.8507 56.5998 58.6653 56.4714C58.48 56.3573 58.3374 56.1434 58.209 55.9153C58.0522 55.6158 57.9381 55.2879 57.881 55.1167C57.824 54.9456 57.8097 54.2469 57.8097 52.992V52.3218C57.8097 52.1649 57.8097 52.0223 57.8097 51.894C57.7955 51.3807 57.7384 51.124 57.6529 51.124C57.3962 51.124 56.9541 51.4092 56.2839 51.9653C55.628 52.5357 55.2857 52.935 55.2857 53.1916C55.2715 53.5481 55.3856 53.9617 55.6565 54.4608C55.7421 54.7745 55.8989 55.131 56.1556 55.516C56.5121 56.0864 56.7117 56.4001 56.7545 56.4714C56.7545 56.4714 56.7545 56.4714 56.7545 56.4857C56.7545 56.5285 56.7545 56.557 56.726 56.5855C56.7117 56.5998 56.6832 56.614 56.6547 56.614C56.6547 56.614 56.6404 56.614 56.6262 56.614C56.3124 56.557 55.0718 55.5731 53.5032 54.3467C53.3892 54.2612 53.2893 54.1613 53.1895 54.0472C52.7475 53.5054 52.5336 52.7353 52.5336 52.1221C52.5336 51.6373 52.6762 51.2523 52.9756 50.9528C53.1895 50.7389 53.7884 50.3397 54.8009 49.7835L56.5834 48.7853C56.9827 48.5287 57.2536 48.2435 57.4105 47.944C57.4532 47.8157 57.5245 47.6731 57.5816 47.502V47.5447Z" fill="#E27E3A"/>
<path d="M58.3374 55.93L57.9667 55.331L58.2804 55.2598L58.5228 55.8587L58.3374 55.93Z" fill="#E27E3A"/>
<path d="M60.6333 48.6988L60.9613 49.4689L60.234 49.1694V48.6133L60.6333 48.6988Z" fill="#E27E3A"/>
<path d="M57.7243 48.7135C57.6102 48.9274 57.4534 49.1128 57.2395 49.3125C57.1396 49.398 57.0256 49.4836 56.8972 49.5691L55.1147 50.5673C54.744 50.7812 54.4303 50.9666 54.1593 51.1235C53.703 51.3944 53.4178 51.6083 53.2895 51.7367C52.99 52.0361 52.8474 52.4211 52.8474 52.906C52.8474 53.348 52.9615 53.733 53.1896 54.0895C53.3465 54.3319 53.5604 54.5601 53.8313 54.7597C55.3999 55.9861 56.3268 56.6135 56.6263 56.6563C56.6263 56.6563 56.6405 56.6563 56.6548 56.6563C56.6833 56.6563 56.7118 56.6563 56.7261 56.6278C56.7404 56.6135 56.7546 56.5708 56.7546 56.528C56.7546 56.528 56.7546 56.528 56.7546 56.5137C56.7118 56.4424 56.5265 56.1144 56.1557 55.5583C55.899 55.1733 55.7422 54.8168 55.6566 54.5031C55.6138 54.3177 55.5853 54.1466 55.5996 53.9754C55.5996 53.7473 55.899 53.3765 56.4694 52.8632C56.5122 52.8204 56.555 52.7919 56.5978 52.7491C57.1396 52.2785 57.5532 52.0076 57.8099 51.922C57.8669 51.9078 57.9097 51.8935 57.9667 51.8935C58.0808 51.8935 58.1378 52.2928 58.1378 53.0913V54.1038C58.1378 55.1448 58.1664 55.7294 58.2091 55.8863C58.2091 55.9005 58.2091 55.9291 58.2234 55.9433C58.3945 56.3996 58.8794 56.7989 59.6636 57.1269C60.4337 57.4549 61.0896 57.6117 61.6315 57.6117C61.7884 57.6117 61.9452 57.5975 62.0736 57.569C62.2304 57.5262 62.4016 57.4834 62.5584 57.4406C64.1413 57.0413 65.5673 56.7561 66.8506 56.5565C67.0645 56.528 67.2784 56.4852 67.4923 56.4567C68.1768 56.3711 68.9041 56.2998 69.6884 56.2713C70.2873 56.257 70.601 56.2285 70.6153 56.2C70.6153 56.2 70.6153 56.1857 70.6153 56.1715V56.1287C70.5154 56.0004 70.1875 55.8435 69.6028 55.6439C68.7187 55.3587 67.7633 55.2303 66.7508 55.2874C66.4514 55.3016 65.995 55.3729 65.4247 55.4727C64.9113 55.5726 64.2696 55.7009 63.5423 55.8863C62.1449 56.2 61.3748 56.3426 61.2608 56.3141C61.1039 56.2713 60.9898 56.0289 60.9328 55.5583C60.9043 55.3016 60.89 54.9879 60.89 54.6171C60.89 54.1323 60.9185 53.4193 60.9756 52.4639C60.9756 52.3498 60.9898 52.2357 61.0041 52.1217C61.0469 51.3374 61.0754 50.7242 61.0754 50.3107C61.0754 49.8971 61.0469 49.5977 61.0041 49.4551C60.9898 49.398 60.9043 49.3267 60.7617 49.2412C60.5335 49.1128 60.1485 48.9417 59.5923 48.7421C58.7225 48.4283 58.1664 48.2715 57.9239 48.2715C57.8526 48.4283 57.7956 48.5709 57.7528 48.7135H57.7243Z" fill="#F0C069"/>
<path d="M57.2253 49.3145L60.9757 52.1522C60.9757 52.2663 60.9614 52.3803 60.9471 52.4944C60.8901 53.4498 60.8616 54.1771 60.8616 54.6477C60.8616 55.7029 60.9899 56.259 61.2323 56.3303C61.3464 56.3589 62.1165 56.2163 63.5139 55.9025C64.2554 55.7314 64.8829 55.5888 65.3962 55.489L66.8365 56.5728C65.5531 56.7724 64.1271 57.0576 62.5443 57.4569L58.1237 54.1201C58.1237 54.006 58.1237 53.8919 58.1237 53.7778V53.1076C58.1237 52.309 58.0666 51.9098 57.9668 51.9098C57.7101 51.9098 57.2538 52.195 56.5979 52.7654C56.5551 52.8082 56.5123 52.8367 56.4695 52.8794L54.1594 51.1255C54.4161 50.9686 54.7441 50.7832 55.1148 50.5693L56.8973 49.5711C57.0257 49.4856 57.1397 49.4 57.2396 49.3145H57.2253Z" fill="#F4C985"/>
</svg>
