<svg width="18" height="18" viewBox="0 0 18 18" fill="none" xmlns="http://www.w3.org/2000/svg">
    <path d="M2 18C1.45 18 0.979002 17.804 0.587002 17.412C0.195002 17.02 -0.000664969 16.5493 1.69779e-06 16V3.50001C1.69779e-06 3.25001 0.0416684 3.02501 0.125002 2.82501C0.208335 2.62501 0.316668 2.43334 0.450002 2.25001L1.85 0.550007C1.98333 0.366674 2.15 0.229007 2.35 0.137007C2.55 0.0450073 2.76667 -0.000659472 3 7.19423e-06H15C15.2333 7.19423e-06 15.45 0.045674 15.65 0.137007C15.85 0.228341 16.0167 0.366007 16.15 0.550007L17.55 2.25001C17.6833 2.43334 17.7917 2.62501 17.875 2.82501C17.9583 3.02501 18 3.25001 18 3.50001V16C18 16.55 17.804 17.021 17.412 17.413C17.02 17.805 16.5493 18.0007 16 18H2ZM2.4 3.00001H15.6L14.75 2.00001H3.25L2.4 3.00001ZM2 16H16V5.00001H2V16ZM9 14.575C9.13334 14.575 9.25834 14.554 9.375 14.512C9.49167 14.47 9.6 14.3993 9.7 14.3L12.3 11.7C12.4833 11.5167 12.575 11.2833 12.575 11C12.575 10.7167 12.4833 10.4833 12.3 10.3C12.1167 10.1167 11.8833 10.025 11.6 10.025C11.3167 10.025 11.0833 10.1167 10.9 10.3L10 11.2V8.00001C10 7.71667 9.904 7.47901 9.712 7.28701C9.52 7.09501 9.28267 6.99934 9 7.00001C8.71667 7.00001 8.479 7.09601 8.287 7.28801C8.095 7.48001 7.99934 7.71734 8 8.00001V11.2L7.1 10.3C6.91667 10.1167 6.68333 10.025 6.4 10.025C6.11667 10.025 5.88334 10.1167 5.7 10.3C5.51667 10.4833 5.425 10.7167 5.425 11C5.425 11.2833 5.51667 11.5167 5.7 11.7L8.3 14.3C8.4 14.4 8.50834 14.4707 8.625 14.512C8.74167 14.5533 8.86667 14.5743 9 14.575Z" fill="#5E85BC"/>
</svg>
