<svg width="18" height="18" viewBox="0 0 18 18" fill="none" xmlns="http://www.w3.org/2000/svg">
<path d="M2 4.46407H16" stroke="#B6B6B6" stroke-width="1.4" stroke-linecap="round" stroke-linejoin="round"/>
<path d="M6.6358 2H11.3642C11.8324 2 12.2815 2.16874 12.6125 2.4691C12.9436 2.76945 13.1296 3.17683 13.1296 3.6016V4.49759H4.87037V3.6072C4.86956 3.3964 4.91462 3.18753 5.00298 2.99257C5.09134 2.79761 5.22125 2.62039 5.38527 2.47107C5.54928 2.32176 5.74418 2.20329 5.95877 2.12245C6.17337 2.04161 6.40344 2 6.6358 2V2Z" stroke="#B6B6B6" stroke-width="1.4" stroke-linecap="round" stroke-linejoin="round"/>
<path d="M11.5803 16H6.34565C5.52308 15.9868 4.73905 15.6815 4.16195 15.1495C3.58485 14.6176 3.26072 13.9016 3.25923 13.1552L3.01855 4.48645H14.9506L14.6358 13.1776C14.6281 13.9154 14.3054 14.6216 13.7356 15.148C13.1657 15.6744 12.3932 15.9798 11.5803 16V16Z" stroke="#B6B6B6" stroke-width="1.4" stroke-linecap="round" stroke-linejoin="round"/>
</svg>
