<svg width="80" height="40" viewBox="0 0 80 40" fill="none" xmlns="http://www.w3.org/2000/svg">
<g clip-path="url(#clip0_991_8769)">
<path d="M14.6102 16.278V19.54H18.1662V20.59H14.6102V23.95H18.5862V25H13.3362V15.228H18.5862V16.278H14.6102ZM20.1379 21.136C20.1379 20.352 20.2966 19.666 20.6139 19.078C20.9313 18.4807 21.3653 18.0187 21.9159 17.692C22.4759 17.3653 23.1013 17.202 23.7919 17.202C24.3893 17.202 24.9446 17.342 25.4579 17.622C25.9713 17.8927 26.3633 18.252 26.6339 18.7V14.64H27.9219V25H26.6339V23.558C26.3819 24.0153 26.0086 24.3933 25.5139 24.692C25.0193 24.9813 24.4406 25.126 23.7779 25.126C23.0966 25.126 22.4759 24.958 21.9159 24.622C21.3653 24.286 20.9313 23.8147 20.6139 23.208C20.2966 22.6013 20.1379 21.9107 20.1379 21.136ZM26.6339 21.15C26.6339 20.5713 26.5173 20.0673 26.2839 19.638C26.0506 19.2087 25.7333 18.882 25.3319 18.658C24.9399 18.4247 24.5059 18.308 24.0299 18.308C23.5539 18.308 23.1199 18.42 22.7279 18.644C22.3359 18.868 22.0233 19.1947 21.7899 19.624C21.5566 20.0533 21.4399 20.5573 21.4399 21.136C21.4399 21.724 21.5566 22.2373 21.7899 22.676C22.0233 23.1053 22.3359 23.4367 22.7279 23.67C23.1199 23.894 23.5539 24.006 24.0299 24.006C24.5059 24.006 24.9399 23.894 25.3319 23.67C25.7333 23.4367 26.0506 23.1053 26.2839 22.676C26.5173 22.2373 26.6339 21.7287 26.6339 21.15ZM30.8329 16.082C30.5902 16.082 30.3849 15.998 30.2169 15.83C30.0489 15.662 29.9649 15.4567 29.9649 15.214C29.9649 14.9713 30.0489 14.766 30.2169 14.598C30.3849 14.43 30.5902 14.346 30.8329 14.346C31.0662 14.346 31.2622 14.43 31.4209 14.598C31.5889 14.766 31.6729 14.9713 31.6729 15.214C31.6729 15.4567 31.5889 15.662 31.4209 15.83C31.2622 15.998 31.0662 16.082 30.8329 16.082ZM31.4489 17.328V25H30.1749V17.328H31.4489ZM35.2742 18.378V22.9C35.2742 23.2733 35.3535 23.5393 35.5122 23.698C35.6709 23.8473 35.9462 23.922 36.3382 23.922H37.2762V25H36.1282C35.4189 25 34.8869 24.8367 34.5322 24.51C34.1775 24.1833 34.0002 23.6467 34.0002 22.9V18.378H33.0062V17.328H34.0002V15.396H35.2742V17.328H37.2762V18.378H35.2742Z" fill="#5E85BC"/>
<path d="M12.2582 26.4H37.7382V27.1H12.2582V26.4Z" fill="#5E85BC"/>
<path d="M52.0406 25.1172L50.0583 23.6086L58.2388 13.2296C58.4317 12.9723 58.8001 12.9255 59.0515 13.1185L60.1099 13.9254C60.3672 14.1184 60.414 14.4867 60.221 14.7382L52.0406 25.1172Z" stroke="#5E85BC" stroke-linecap="round" stroke-linejoin="round"/>
<path d="M58.8879 16.159L57.0693 14.8024" stroke="#5E85BC" stroke-linecap="round" stroke-linejoin="round"/>
<path d="M50.0642 23.6027C50.0642 23.6027 49.0819 25.3335 49 27C49 27 50.2396 26.6257 52.0406 25.1113" stroke="#5E85BC" stroke-linecap="round" stroke-linejoin="round"/>
</g>
<defs>
<clipPath id="clip0_991_8769">
<rect width="80" height="40" rx="20" fill="white"/>
</clipPath>
</defs>
</svg>
