<svg width="36" height="36" viewBox="0 0 36 36" fill="none" xmlns="http://www.w3.org/2000/svg">
<path fill-rule="evenodd" clip-rule="evenodd" d="M18 36C27.9411 36 36 27.9411 36 18C36 8.05887 27.9411 0 18 0C8.05887 0 0 8.05887 0 18C0 27.9411 8.05887 36 18 36ZM15.7975 17.85V27H19.1052V17.85H22.3523L22.5 14.5556H19.1052V12.1501C19.1052 11.2417 19.2859 10.6945 20.4136 10.6945C21.4555 10.6945 22.4104 10.7043 22.4104 10.7043L22.4841 7.62782C22.4841 7.62782 21.5479 7.5 20.2818 7.5C17.1546 7.5 15.7975 9.53057 15.7975 11.7417V14.5556H13.5V17.85H15.7975Z" fill="white"/>
</svg>
