<svg width="20" height="20" viewBox="0 0 20 20" fill="none" xmlns="http://www.w3.org/2000/svg">
<path d="M2.42255 12.5209V0.666656" stroke="#646466" stroke-width="1.25" stroke-linecap="round" stroke-linejoin="round"/>
<path d="M4.11909 14.2388C4.11909 13.2854 3.34624 12.5126 2.39289 12.5126C1.43953 12.5126 0.666687 13.2854 0.666687 14.2388C0.666687 15.1921 1.43953 15.965 2.39289 15.965C3.34624 15.965 4.11909 15.1921 4.11909 14.2388Z" stroke="#646466" stroke-width="1.25" stroke-linecap="round" stroke-linejoin="round"/>
<path d="M10.3635 7.47899V19.3333" stroke="#646466" stroke-width="1.25" stroke-linecap="round" stroke-linejoin="round"/>
<path d="M8.66663 5.76126C8.66663 6.71461 9.43952 7.48746 10.3929 7.48746C11.3462 7.48746 12.119 6.71461 12.119 5.76126C12.119 4.8079 11.3462 4.03506 10.3929 4.03506C9.43952 4.03506 8.66663 4.8079 8.66663 5.76126Z" stroke="#646466" stroke-width="1.25" stroke-linecap="round" stroke-linejoin="round"/>
<path d="M17.0887 12.5209V0.666656" stroke="#646466" stroke-width="1.25" stroke-linecap="round" stroke-linejoin="round"/>
<path d="M18.7858 14.2387C18.7858 13.2854 18.0129 12.5125 17.0596 12.5125C16.1062 12.5125 15.3334 13.2854 15.3334 14.2387C15.3334 15.1921 16.1062 15.9649 17.0596 15.9649C18.0129 15.9649 18.7858 15.1921 18.7858 14.2387Z" stroke="#646466" stroke-width="1.25" stroke-linecap="round" stroke-linejoin="round"/>
</svg>