<svg width="19" height="19" viewBox="0 0 19 19" fill="none" xmlns="http://www.w3.org/2000/svg" style="fill: #B6B6B6;">
	<path d="M16.3465 17.8125H11.5597C10.7516 17.8125 10.0938 17.1546 10.0938 16.3465V10.3722C10.0938 9.56412 10.7516 8.90625 11.5597 8.90625H16.3465C17.1546 8.90625 17.8125 9.56412 17.8125 10.3722V16.3465C17.8125 17.1546 17.1546 17.8125 16.3465 17.8125ZM11.5597 10.0938C11.4059 10.0938 11.2812 10.2184 11.2812 10.3722V16.3465C11.2812 16.5003 11.4059 16.625 11.5597 16.625H16.3465C16.5003 16.625 16.625 16.5003 16.625 16.3465V10.3722C16.625 10.2184 16.5003 10.0938 16.3465 10.0938H11.5597Z"
	      fill=""/>
	<path d="M16.3465 7.71875H11.5597C10.7516 7.71875 10.0938 7.06087 10.0938 6.25278V2.65347C10.0938 1.84537 10.7516 1.1875 11.5597 1.1875H16.3465C17.1546 1.1875 17.8125 1.84537 17.8125 2.65347V6.25278C17.8125 7.06087 17.1546 7.71875 16.3465 7.71875ZM11.5597 2.375C11.4059 2.375 11.2812 2.49969 11.2812 2.65347V6.25278C11.2812 6.40656 11.4059 6.53125 11.5597 6.53125H16.3465C16.5003 6.53125 16.625 6.40656 16.625 6.25278V2.65347C16.625 2.49969 16.5003 2.375 16.3465 2.375H11.5597Z"
	      fill=""/>
	<path d="M7.44028 10.0938H2.65347C1.84537 10.0938 1.1875 9.43587 1.1875 8.62778V2.65347C1.1875 1.84537 1.84537 1.1875 2.65347 1.1875H7.44028C8.24837 1.1875 8.90625 1.84537 8.90625 2.65347V8.62778C8.90625 9.43587 8.24837 10.0938 7.44028 10.0938ZM2.65347 2.375C2.49969 2.375 2.375 2.49969 2.375 2.65347V8.62778C2.375 8.78156 2.49969 8.90625 2.65347 8.90625H7.44028C7.59406 8.90625 7.71875 8.78156 7.71875 8.62778V2.65347C7.71875 2.49969 7.59406 2.375 7.44028 2.375H2.65347Z"
	      fill=""/>
	<path d="M7.44028 17.8125H2.65347C1.84537 17.8125 1.1875 17.1546 1.1875 16.3465V12.7472C1.1875 11.9391 1.84537 11.2812 2.65347 11.2812H7.44028C8.24837 11.2812 8.90625 11.9391 8.90625 12.7472V16.3465C8.90625 17.1546 8.24837 17.8125 7.44028 17.8125ZM2.65347 12.4688C2.49969 12.4688 2.375 12.5934 2.375 12.7472V16.3465C2.375 16.5003 2.49969 16.625 2.65347 16.625H7.44028C7.59406 16.625 7.71875 16.5003 7.71875 16.3465V12.7472C7.71875 12.5934 7.59406 12.4688 7.44028 12.4688H2.65347Z"
	      fill=""/>
</svg>
