





<svg width="19" height="19" viewBox="0 0 19 19" fill="none" xmlns="http://www.w3.org/2000/svg">
<path d="M3.00001 6.52672V10.9292C2.99901 11.392 3.08659 11.8504 3.25775 12.2782C3.4289 12.7061 3.68029 13.0949 3.99747 13.4225C4.31465 13.7501 4.6914 14.01 5.10618 14.1873C5.52096 14.3646 5.96558 14.4559 6.41464 14.4559H12.3789C13.0982 14.4462 13.7927 14.7268 14.3138 15.2379L15.8315 16.8018C15.9283 16.8976 16.0502 16.9623 16.1822 16.9878C16.3142 17.0133 16.4506 16.9986 16.5746 16.9455C16.6986 16.8924 16.8049 16.8032 16.8805 16.6888C16.956 16.5744 16.9976 16.4397 17 16.3013V6.52672C17 5.59274 16.6405 4.69693 16.0004 4.03577C15.3602 3.37461 14.4917 3.00211 13.5854 3.00003H6.42983C5.9795 2.99797 5.53322 3.08775 5.11669 3.26416C4.70016 3.44056 4.32158 3.7001 4.0028 4.0279C3.68401 4.35569 3.43128 4.74522 3.25918 5.17407C3.08708 5.60293 2.999 6.06264 3.00001 6.52672V6.52672Z" stroke="#b6b6b6" stroke-width="1.25" stroke-miterlimit="10"/>
<ellipse cx="8.31178" cy="9.1071" rx="0.758807" ry="0.781968" fill="#b6b6b6"/>
<ellipse cx="12.1058" cy="9.10713" rx="0.758807" ry="0.781968" fill="#b6b6b6"/>
</svg>
